<svg id="my-svg" width="100%" xmlns="http://www.w3.org/2000/svg" xmlns:xlink="http://www.w3.org/1999/xlink" class="flowchart" style="max-width: 1461.37px; background-color: transparent;" viewBox="0 0 1461.37109375 1085" role="graphics-document document" aria-roledescription="flowchart-v2"><style>#my-svg{font-family:"trebuchet ms",verdana,arial,sans-serif;font-size:16px;fill:#eee;}@keyframes edge-animation-frame{from{stroke-dashoffset:0;}}@keyframes dash{to{stroke-dashoffset:0;}}#my-svg .edge-animation-slow{stroke-dasharray:9,5!important;stroke-dashoffset:900;animation:dash 50s linear infinite;stroke-linecap:round;}#my-svg .edge-animation-fast{stroke-dasharray:9,5!important;stroke-dashoffset:900;animation:dash 20s linear infinite;stroke-linecap:round;}#my-svg .error-icon{fill:#533483;}#my-svg .error-text{fill:#accb7c;stroke:#accb7c;}#my-svg .edge-thickness-normal{stroke-width:1px;}#my-svg .edge-thickness-thick{stroke-width:3.5px;}#my-svg .edge-pattern-solid{stroke-dasharray:0;}#my-svg .edge-thickness-invisible{stroke-width:0;fill:none;}#my-svg .edge-pattern-dashed{stroke-dasharray:3;}#my-svg .edge-pattern-dotted{stroke-dasharray:2;}#my-svg .marker{fill:#e94560;stroke:#e94560;}#my-svg .marker.cross{stroke:#e94560;}#my-svg svg{font-family:"trebuchet ms",verdana,arial,sans-serif;font-size:16px;}#my-svg p{margin:0;}#my-svg .label{font-family:"trebuchet ms",verdana,arial,sans-serif;color:#eee;}#my-svg .cluster-label text{fill:#accb7c;}#my-svg .cluster-label span{color:#accb7c;}#my-svg .cluster-label span p{background-color:transparent;}#my-svg .label text,#my-svg span{fill:#eee;color:#eee;}#my-svg .node rect,#my-svg .node circle,#my-svg .node ellipse,#my-svg .node polygon,#my-svg .node path{fill:#1a1a2e;stroke:#16213e;stroke-width:1px;}#my-svg .rough-node .label text,#my-svg .node .label text,#my-svg .image-shape .label,#my-svg .icon-shape .label{text-anchor:middle;}#my-svg .node .katex path{fill:#000;stroke:#000;stroke-width:1px;}#my-svg .rough-node .label,#my-svg .node .label,#my-svg .image-shape .label,#my-svg .icon-shape .label{text-align:center;}#my-svg .node.clickable{cursor:pointer;}#my-svg .root .anchor path{fill:#e94560!important;stroke-width:0;stroke:#e94560;}#my-svg .arrowheadPath{fill:#0b0b0b;}#my-svg .edgePath .path{stroke:#e94560;stroke-width:2.0px;}#my-svg .flowchart-link{stroke:#e94560;fill:none;}#my-svg .edgeLabel{background-color:#0f3460;text-align:center;}#my-svg .edgeLabel p{background-color:#0f3460;}#my-svg .edgeLabel rect{opacity:0.5;background-color:#0f3460;fill:#0f3460;}#my-svg .labelBkg{background-color:rgba(15, 52, 96, 0.5);}#my-svg .cluster rect{fill:#533483;stroke:hsl(263.5443037975, 3.1693989071%, 25.8823529412%);stroke-width:1px;}#my-svg .cluster text{fill:#accb7c;}#my-svg .cluster span{color:#accb7c;}#my-svg div.mermaidTooltip{position:absolute;text-align:center;max-width:200px;padding:2px;font-family:"trebuchet ms",verdana,arial,sans-serif;font-size:12px;background:#533483;border:1px solid hsl(263.5443037975, 3.1693989071%, 25.8823529412%);border-radius:2px;pointer-events:none;z-index:100;}#my-svg .flowchartTitleText{text-anchor:middle;font-size:18px;fill:#eee;}#my-svg rect.text{fill:none;stroke-width:0;}#my-svg .icon-shape,#my-svg .image-shape{background-color:#0f3460;text-align:center;}#my-svg .icon-shape p,#my-svg .image-shape p{background-color:#0f3460;padding:2px;}#my-svg .icon-shape rect,#my-svg .image-shape rect{opacity:0.5;background-color:#0f3460;fill:#0f3460;}#my-svg .label-icon{display:inline-block;height:1em;overflow:visible;vertical-align:-0.125em;}#my-svg .node .label-icon path{fill:currentColor;stroke:revert;stroke-width:revert;}#my-svg :root{--mermaid-font-family:"trebuchet ms",verdana,arial,sans-serif;}#my-svg .hostStyle&gt;*{fill:#16213e!important;stroke:#e94560!important;stroke-width:2px!important;color:#eee!important;}#my-svg .hostStyle span{fill:#16213e!important;stroke:#e94560!important;stroke-width:2px!important;color:#eee!important;}#my-svg .hostStyle tspan{fill:#eee!important;}#my-svg .masterStyle&gt;*{fill:#0f3460!important;stroke:#e94560!important;stroke-width:2px!important;color:#eee!important;}#my-svg .masterStyle span{fill:#0f3460!important;stroke:#e94560!important;stroke-width:2px!important;color:#eee!important;}#my-svg .masterStyle tspan{fill:#eee!important;}#my-svg .workerStyle&gt;*{fill:#533483!important;stroke:#e94560!important;stroke-width:2px!important;color:#eee!important;}#my-svg .workerStyle span{fill:#533483!important;stroke:#e94560!important;stroke-width:2px!important;color:#eee!important;}#my-svg .workerStyle tspan{fill:#eee!important;}#my-svg .subnetStyle&gt;*{fill:#1a1a2e!important;stroke:#16213e!important;stroke-width:1px!important;color:#eee!important;}#my-svg .subnetStyle span{fill:#1a1a2e!important;stroke:#16213e!important;stroke-width:1px!important;color:#eee!important;}#my-svg .subnetStyle tspan{fill:#eee!important;}</style><g><marker id="my-svg_flowchart-v2-pointEnd" class="marker flowchart-v2" viewBox="0 0 10 10" refX="5" refY="5" markerUnits="userSpaceOnUse" markerWidth="8" markerHeight="8" orient="auto"><path d="M 0 0 L 10 5 L 0 10 z" class="arrowMarkerPath" style="stroke-width: 1; stroke-dasharray: 1, 0;"/></marker><marker id="my-svg_flowchart-v2-pointStart" class="marker flowchart-v2" viewBox="0 0 10 10" refX="4.5" refY="5" markerUnits="userSpaceOnUse" markerWidth="8" markerHeight="8" orient="auto"><path d="M 0 5 L 10 10 L 10 0 z" class="arrowMarkerPath" style="stroke-width: 1; stroke-dasharray: 1, 0;"/></marker><marker id="my-svg_flowchart-v2-circleEnd" class="marker flowchart-v2" viewBox="0 0 10 10" refX="11" refY="5" markerUnits="userSpaceOnUse" markerWidth="11" markerHeight="11" orient="auto"><circle cx="5" cy="5" r="5" class="arrowMarkerPath" style="stroke-width: 1; stroke-dasharray: 1, 0;"/></marker><marker id="my-svg_flowchart-v2-circleStart" class="marker flowchart-v2" viewBox="0 0 10 10" refX="-1" refY="5" markerUnits="userSpaceOnUse" markerWidth="11" markerHeight="11" orient="auto"><circle cx="5" cy="5" r="5" class="arrowMarkerPath" style="stroke-width: 1; stroke-dasharray: 1, 0;"/></marker><marker id="my-svg_flowchart-v2-crossEnd" class="marker cross flowchart-v2" viewBox="0 0 11 11" refX="12" refY="5.2" markerUnits="userSpaceOnUse" markerWidth="11" markerHeight="11" orient="auto"><path d="M 1,1 l 9,9 M 10,1 l -9,9" class="arrowMarkerPath" style="stroke-width: 2; stroke-dasharray: 1, 0;"/></marker><marker id="my-svg_flowchart-v2-crossStart" class="marker cross flowchart-v2" viewBox="0 0 11 11" refX="-1" refY="5.2" markerUnits="userSpaceOnUse" markerWidth="11" markerHeight="11" orient="auto"><path d="M 1,1 l 9,9 M 10,1 l -9,9" class="arrowMarkerPath" style="stroke-width: 2; stroke-dasharray: 1, 0;"/></marker><g class="root"><g class="clusters"><g class="cluster" id="JUPITER" data-look="classic"><rect style="" x="8" y="648" width="753.22265625" height="429"/><g class="cluster-label" transform="translate(313.447265625, 648)"><foreignObject width="142.328125" height="24"><div xmlns="http://www.w3.org/1999/xhtml" style="display: table-cell; white-space: nowrap; line-height: 1.5; max-width: 200px; text-align: center;"><span class="nodeLabel"><p>jupiter - 5.9.157.221</p></span></div></foreignObject></g></g><g class="cluster" id="ZEUS" data-look="classic"><rect style="" x="863.16796875" y="348" width="590.203125" height="502"/><g class="cluster-label" transform="translate(1091.99609375, 348)"><foreignObject width="132.546875" height="24"><div xmlns="http://www.w3.org/1999/xhtml" style="display: table-cell; white-space: nowrap; line-height: 1.5; max-width: 200px; text-align: center;"><span class="nodeLabel"><p>zeus - 5.9.157.226</p></span></div></foreignObject></g></g><g class="cluster" id="MARS" data-look="classic"><rect style="" x="83.90905380249023" y="147" width="726.4375" height="403"/><g class="cluster-label" transform="translate(371.08092880249023, 147)"><foreignObject width="152.09375" height="24"><div xmlns="http://www.w3.org/1999/xhtml" style="display: table-cell; white-space: nowrap; line-height: 1.5; max-width: 200px; text-align: center;"><span class="nodeLabel"><p>mars - 94.130.141.98</p></span></div></foreignObject></g></g><g class="cluster" id="INTERNET" data-look="classic"><rect style="" x="8" y="8" width="1169.2449913024902" height="89"/><g class="cluster-label" transform="translate(565.4896831512451, 8)"><foreignObject width="54.265625" height="24"><div xmlns="http://www.w3.org/1999/xhtml" style="display: table-cell; white-space: nowrap; line-height: 1.5; max-width: 200px; text-align: center;"><span class="nodeLabel"><p>Internet</p></span></div></foreignObject></g></g><g class="cluster" id="JUPITER_VMS" data-look="classic"><rect style="" x="263.68359375" y="900" width="467.640625" height="152"/><g class="cluster-label" transform="translate(405.90234375, 900)"><foreignObject width="183.203125" height="24"><div xmlns="http://www.w3.org/1999/xhtml" style="display: table-cell; white-space: nowrap; line-height: 1.5; max-width: 200px; text-align: center;"><span class="nodeLabel"><p>KVM VMs - 10.10.30.0/24</p></span></div></foreignObject></g></g><g class="cluster" id="ZEUS_VMS" data-look="classic"><rect style="" x="965.73046875" y="673" width="467.640625" height="152"/><g class="cluster-label" transform="translate(1107.94921875, 673)"><foreignObject width="183.203125" height="24"><div xmlns="http://www.w3.org/1999/xhtml" style="display: table-cell; white-space: nowrap; line-height: 1.5; max-width: 200px; text-align: center;"><span class="nodeLabel"><p>KVM VMs - 10.10.20.0/24</p></span></div></foreignObject></g></g><g class="cluster" id="MARS_VMS" data-look="classic"><rect style="" x="103.90905380249023" y="373" width="458.75" height="152"/><g class="cluster-label" transform="translate(241.68249130249023, 373)"><foreignObject width="183.203125" height="24"><div xmlns="http://www.w3.org/1999/xhtml" style="display: table-cell; white-space: nowrap; line-height: 1.5; max-width: 200px; text-align: center;"><span class="nodeLabel"><p>KVM VMs - 10.10.10.0/24</p></span></div></foreignObject></g></g></g><g class="edgePaths"><path d="M479.547,234.899L436.517,245.583C393.488,256.266,307.429,277.633,264.399,296.483C221.37,315.333,221.37,331.667,221.37,344C221.37,356.333,221.37,364.667,221.37,373C221.37,381.333,221.37,389.667,221.37,393.833L221.37,398" id="L_MARS_HOST_M1_0" class="edge-thickness-normal edge-pattern-solid edge-thickness-normal edge-pattern-solid flowchart-link" style=";" data-edge="true" data-et="edge" data-id="L_MARS_HOST_M1_0" data-points="W3sieCI6NDc5LjU0Njg3NSwieSI6MjM0Ljg5OTE0ODY3NDk5MjI2fSx7IngiOjIyMS4zNjk5OTEzMDI0OTAyMywieSI6Mjk5fSx7IngiOjIyMS4zNjk5OTEzMDI0OTAyMywieSI6MzQ4fSx7IngiOjIyMS4zNjk5OTEzMDI0OTAyMywieSI6MzczfSx7IngiOjIyMS4zNjk5OTEzMDI0OTAyMywieSI6Mzk4fV0="/><path d="M515.949,250L503.415,258.167C490.881,266.333,465.813,282.667,453.279,299C440.745,315.333,440.745,331.667,440.745,344C440.745,356.333,440.745,364.667,440.745,373C440.745,381.333,440.745,389.667,440.745,393.833L440.745,398" id="L_MARS_HOST_W1_0" class="edge-thickness-normal edge-pattern-solid edge-thickness-normal edge-pattern-solid flowchart-link" style=";" data-edge="true" data-et="edge" data-id="L_MARS_HOST_W1_0" data-points="W3sieCI6NTE1Ljk0ODY4NTc3NjEwMzYsInkiOjI1MH0seyJ4Ijo0NDAuNzQ0OTkxMzAyNDkwMjMsInkiOjI5OX0seyJ4Ijo0NDAuNzQ0OTkxMzAyNDkwMjMsInkiOjM0OH0seyJ4Ijo0NDAuNzQ0OTkxMzAyNDkwMjMsInkiOjM3M30seyJ4Ijo0NDAuNzQ0OTkxMzAyNDkwMjMsInkiOjM5OH1d"/><path d="M1119.244,488L1113.235,494.167C1107.226,500.333,1095.209,512.667,1089.2,523C1083.191,533.333,1083.191,541.667,1083.191,554C1083.191,566.333,1083.191,582.667,1083.191,599C1083.191,615.333,1083.191,631.667,1083.191,644C1083.191,656.333,1083.191,664.667,1083.191,673C1083.191,681.333,1083.191,689.667,1083.191,693.833L1083.191,698" id="L_ZEUS_HOST_M2_0" class="edge-thickness-normal edge-pattern-solid edge-thickness-normal edge-pattern-solid flowchart-link" style=";" data-edge="true" data-et="edge" data-id="L_ZEUS_HOST_M2_0" data-points="W3sieCI6MTExOS4yNDM4MDk0OTkyMzg4LCJ5Ijo0ODh9LHsieCI6MTA4My4xOTE0MDYyNSwieSI6NTI1fSx7IngiOjEwODMuMTkxNDA2MjUsInkiOjU1MH0seyJ4IjoxMDgzLjE5MTQwNjI1LCJ5Ijo1OTl9LHsieCI6MTA4My4xOTE0MDYyNSwieSI6NjQ4fSx7IngiOjEwODMuMTkxNDA2MjUsInkiOjY3M30seyJ4IjoxMDgzLjE5MTQwNjI1LCJ5Ijo2OTh9XQ=="/><path d="M1234.099,488L1246.251,494.167C1258.403,500.333,1282.707,512.667,1294.86,523C1307.012,533.333,1307.012,541.667,1307.012,554C1307.012,566.333,1307.012,582.667,1307.012,599C1307.012,615.333,1307.012,631.667,1307.012,644C1307.012,656.333,1307.012,664.667,1307.012,673C1307.012,681.333,1307.012,689.667,1307.012,693.833L1307.012,698" id="L_ZEUS_HOST_W2_0" class="edge-thickness-normal edge-pattern-solid edge-thickness-normal edge-pattern-solid flowchart-link" style=";" data-edge="true" data-et="edge" data-id="L_ZEUS_HOST_W2_0" data-points="W3sieCI6MTIzNC4wOTg5Njk4NjEwODA4LCJ5Ijo0ODh9LHsieCI6MTMwNy4wMTE3MTg3NSwieSI6NTI1fSx7IngiOjEzMDcuMDExNzE4NzUsInkiOjU1MH0seyJ4IjoxMzA3LjAxMTcxODc1LCJ5Ijo1OTl9LHsieCI6MTMwNy4wMTE3MTg3NSwieSI6NjQ4fSx7IngiOjEzMDcuMDExNzE4NzUsInkiOjY3M30seyJ4IjoxMzA3LjAxMTcxODc1LCJ5Ijo2OTh9XQ=="/><path d="M508.707,781.685L487.447,788.904C466.186,796.123,423.665,810.562,402.405,821.948C381.145,833.333,381.145,841.667,381.145,850C381.145,858.333,381.145,866.667,381.145,875C381.145,883.333,381.145,891.667,381.145,900C381.145,908.333,381.145,916.667,381.145,920.833L381.145,925" id="L_JUPITER_HOST_M3_0" class="edge-thickness-normal edge-pattern-solid edge-thickness-normal edge-pattern-solid flowchart-link" style=";" data-edge="true" data-et="edge" data-id="L_JUPITER_HOST_M3_0" data-points="W3sieCI6NTA4LjcwNzAzMTI1LCJ5Ijo3ODEuNjg1MTE5ODk5NDczfSx7IngiOjM4MS4xNDQ1MzEyNSwieSI6ODI1fSx7IngiOjM4MS4xNDQ1MzEyNSwieSI6ODUwfSx7IngiOjM4MS4xNDQ1MzEyNSwieSI6ODc1fSx7IngiOjM4MS4xNDQ1MzEyNSwieSI6OTAwfSx7IngiOjM4MS4xNDQ1MzEyNSwieSI6OTI1fV0="/><path d="M604.965,788L604.965,794.167C604.965,800.333,604.965,812.667,604.965,823C604.965,833.333,604.965,841.667,604.965,850C604.965,858.333,604.965,866.667,604.965,875C604.965,883.333,604.965,891.667,604.965,900C604.965,908.333,604.965,916.667,604.965,920.833L604.965,925" id="L_JUPITER_HOST_W3_0" class="edge-thickness-normal edge-pattern-solid edge-thickness-normal edge-pattern-solid flowchart-link" style=";" data-edge="true" data-et="edge" data-id="L_JUPITER_HOST_W3_0" data-points="W3sieCI6NjA0Ljk2NDg0Mzc1LCJ5Ijo3ODh9LHsieCI6NjA0Ljk2NDg0Mzc1LCJ5Ijo4MjV9LHsieCI6NjA0Ljk2NDg0Mzc1LCJ5Ijo4NTB9LHsieCI6NjA0Ljk2NDg0Mzc1LCJ5Ijo4NzV9LHsieCI6NjA0Ljk2NDg0Mzc1LCJ5Ijo5MDB9LHsieCI6NjA0Ljk2NDg0Mzc1LCJ5Ijo5MjV9XQ=="/><path d="M576.305,72.5L576.221,76.583C576.138,80.667,575.971,88.833,575.888,97.083C575.805,105.333,575.805,113.667,575.805,122C575.805,130.333,575.805,138.667,575.805,146.333C575.805,154,575.805,161,575.805,164.5L575.805,168" id="L_CLIENT_MARS_HOST_0" class="edge-thickness-normal edge-pattern-solid edge-thickness-normal edge-pattern-solid flowchart-link" style=";" data-edge="true" data-et="edge" data-id="L_CLIENT_MARS_HOST_0" data-points="W3sieCI6NTc2LjMwNDY4NzUsInkiOjcyLjV9LHsieCI6NTc1LjgwNDY4NzUsInkiOjk3fSx7IngiOjU3NS44MDQ2ODc1LCJ5IjoxMjJ9LHsieCI6NTc1LjgwNDY4NzUsInkiOjE0N30seyJ4Ijo1NzUuODA0Njg3NSwieSI6MTcyfV0=" marker-end="url(#my-svg_flowchart-v2-pointEnd)"/><path d="M612.923,55.803L703.643,62.669C794.364,69.535,975.804,83.268,1066.525,94.3C1157.245,105.333,1157.245,113.667,1157.245,122C1157.245,130.333,1157.245,138.667,1157.245,153.5C1157.245,168.333,1157.245,189.667,1157.245,215C1157.245,240.333,1157.245,269.667,1157.245,292.5C1157.245,315.333,1157.245,331.667,1157.245,344C1157.245,356.333,1157.245,364.667,1157.245,374.333C1157.245,384,1157.245,395,1157.245,400.5L1157.245,406" id="L_CLIENT_ZEUS_HOST_0" class="edge-thickness-normal edge-pattern-solid edge-thickness-normal edge-pattern-solid flowchart-link" style=";" data-edge="true" data-et="edge" data-id="L_CLIENT_ZEUS_HOST_0" data-points="W3sieCI6NjEyLjkyMjc4Mjg0OTY2OTEsInkiOjU1LjgwMjUzMjMxOTE0NTUzNH0seyJ4IjoxMTU3LjI0NDk5MTMwMjQ5MDIsInkiOjk3fSx7IngiOjExNTcuMjQ0OTkxMzAyNDkwMiwieSI6MTIyfSx7IngiOjExNTcuMjQ0OTkxMzAyNDkwMiwieSI6MTQ3fSx7IngiOjExNTcuMjQ0OTkxMzAyNDkwMiwieSI6MjExfSx7IngiOjExNTcuMjQ0OTkxMzAyNDkwMiwieSI6Mjk5fSx7IngiOjExNTcuMjQ0OTkxMzAyNDkwMiwieSI6MzQ4fSx7IngiOjExNTcuMjQ0OTkxMzAyNDkwMiwieSI6MzczfSx7IngiOjExNTcuMjQ0OTkxMzAyNDkwMiwieSI6NDEwfV0=" marker-end="url(#my-svg_flowchart-v2-pointEnd)"/><path d="M539.739,56.179L460.434,62.982C381.129,69.786,222.519,83.393,143.214,94.363C63.909,105.333,63.909,113.667,63.909,122C63.909,130.333,63.909,138.667,63.909,153.5C63.909,168.333,63.909,189.667,63.909,215C63.909,240.333,63.909,269.667,63.909,292.5C63.909,315.333,63.909,331.667,63.909,344C63.909,356.333,63.909,364.667,63.909,381.5C63.909,398.333,63.909,423.667,63.909,449C63.909,474.333,63.909,499.667,63.909,516.5C63.909,533.333,63.909,541.667,63.909,554C63.909,566.333,63.909,582.667,63.909,599C63.909,615.333,63.909,631.667,63.909,644C63.909,656.333,63.909,664.667,137.382,679.154C210.855,693.641,357.8,714.282,431.273,724.602L504.746,734.923" id="L_CLIENT_JUPITER_HOST_0" class="edge-thickness-normal edge-pattern-solid edge-thickness-normal edge-pattern-solid flowchart-link" style=";" data-edge="true" data-et="edge" data-id="L_CLIENT_JUPITER_HOST_0" data-points="W3sieCI6NTM5LjczOTQ2MzcyODg5NTgsInkiOjU2LjE3ODY4MDA4NzY5ODYyfSx7IngiOjYzLjkwOTA1MzgwMjQ5MDIzNCwieSI6OTd9LHsieCI6NjMuOTA5MDUzODAyNDkwMjM0LCJ5IjoxMjJ9LHsieCI6NjMuOTA5MDUzODAyNDkwMjM0LCJ5IjoxNDd9LHsieCI6NjMuOTA5MDUzODAyNDkwMjM0LCJ5IjoyMTF9LHsieCI6NjMuOTA5MDUzODAyNDkwMjM0LCJ5IjoyOTl9LHsieCI6NjMuOTA5MDUzODAyNDkwMjM0LCJ5IjozNDh9LHsieCI6NjMuOTA5MDUzODAyNDkwMjM0LCJ5IjozNzN9LHsieCI6NjMuOTA5MDUzODAyNDkwMjM0LCJ5Ijo0NDl9LHsieCI6NjMuOTA5MDUzODAyNDkwMjM0LCJ5Ijo1MjV9LHsieCI6NjMuOTA5MDUzODAyNDkwMjM0LCJ5Ijo1NTB9LHsieCI6NjMuOTA5MDUzODAyNDkwMjM0LCJ5Ijo1OTl9LHsieCI6NjMuOTA5MDUzODAyNDkwMjM0LCJ5Ijo2NDh9LHsieCI6NjMuOTA5MDUzODAyNDkwMjM0LCJ5Ijo2NzN9LHsieCI6NTA4LjcwNzAzMTI1LCJ5Ijo3MzUuNDc5MDM5ODk1ODQ5NH1d" marker-end="url(#my-svg_flowchart-v2-pointEnd)"/><path d="M646.621,252.004L660.148,259.837C673.675,267.67,700.73,283.335,714.257,299.334C727.784,315.333,727.784,331.667,727.784,344C727.784,356.333,727.784,364.667,782.661,378.545C837.539,392.423,947.294,411.846,1002.171,421.557L1057.048,431.269" id="L_MARS_HOST_ZEUS_HOST_0" class="edge-thickness-normal edge-pattern-solid edge-thickness-normal edge-pattern-solid flowchart-link" style=";" data-edge="true" data-et="edge" data-id="L_MARS_HOST_ZEUS_HOST_0" data-points="W3sieCI6NjQzLjE1OTE3OTM4NDA1ODIsInkiOjI1MH0seyJ4Ijo3MjcuNzg0MDUzODAyNDkwMiwieSI6Mjk5fSx7IngiOjcyNy43ODQwNTM4MDI0OTAyLCJ5IjozNDh9LHsieCI6NzI3Ljc4NDA1MzgwMjQ5MDIsInkiOjM3M30seyJ4IjoxMDYwLjk4NzE3ODgwMjQ5MDIsInkiOjQzMS45NjU2MzY0MjY0Nzk0fV0=" marker-start="url(#my-svg_flowchart-v2-pointStart)" marker-end="url(#my-svg_flowchart-v2-pointEnd)"/><path d="M609.046,253.141L615.076,260.784C621.105,268.427,633.163,283.714,639.192,299.523C645.222,315.333,645.222,331.667,645.222,344C645.222,356.333,645.222,364.667,645.222,381.5C645.222,398.333,645.222,423.667,645.222,449C645.222,474.333,645.222,499.667,645.222,516.5C645.222,533.333,645.222,541.667,645.222,554C645.222,566.333,645.222,582.667,645.222,599C645.222,615.333,645.222,631.667,645.222,644C645.222,656.333,645.222,664.667,642.267,674.411C639.313,684.155,633.404,695.31,630.45,700.888L627.495,706.465" id="L_MARS_HOST_JUPITER_HOST_0" class="edge-thickness-normal edge-pattern-solid edge-thickness-normal edge-pattern-solid flowchart-link" style=";" data-edge="true" data-et="edge" data-id="L_MARS_HOST_JUPITER_HOST_0" data-points="W3sieCI6NjA2LjU2ODk4MDUyMDQyMTksInkiOjI1MH0seyJ4Ijo2NDUuMjIxNTUzODAyNDkwMiwieSI6Mjk5fSx7IngiOjY0NS4yMjE1NTM4MDI0OTAyLCJ5IjozNDh9LHsieCI6NjQ1LjIyMTU1MzgwMjQ5MDIsInkiOjM3M30seyJ4Ijo2NDUuMjIxNTUzODAyNDkwMiwieSI6NDQ5fSx7IngiOjY0NS4yMjE1NTM4MDI0OTAyLCJ5Ijo1MjV9LHsieCI6NjQ1LjIyMTU1MzgwMjQ5MDIsInkiOjU1MH0seyJ4Ijo2NDUuMjIxNTUzODAyNDkwMiwieSI6NTk5fSx7IngiOjY0NS4yMjE1NTM4MDI0OTAyLCJ5Ijo2NDh9LHsieCI6NjQ1LjIyMTU1MzgwMjQ5MDIsInkiOjY3M30seyJ4Ijo2MjUuNjIyODkyMzI5NTY3MywieSI6NzEwfV0=" marker-start="url(#my-svg_flowchart-v2-pointStart)" marker-end="url(#my-svg_flowchart-v2-pointEnd)"/><path d="M1057.223,484.939L1038.641,491.616C1020.059,498.293,982.895,511.646,964.313,522.49C945.73,533.333,945.73,541.667,945.73,554C945.73,566.333,945.73,582.667,945.73,599C945.73,615.333,945.73,631.667,945.73,644C945.73,656.333,945.73,664.667,905.63,677.777C865.529,690.887,785.328,708.774,745.227,717.718L705.127,726.661" id="L_ZEUS_HOST_JUPITER_HOST_0" class="edge-thickness-normal edge-pattern-solid edge-thickness-normal edge-pattern-solid flowchart-link" style=";" data-edge="true" data-et="edge" data-id="L_ZEUS_HOST_JUPITER_HOST_0" data-points="W3sieCI6MTA2MC45ODcxNzg4MDI0OTAyLCJ5Ijo0ODMuNTg2NzIwODYzMDI5Nzd9LHsieCI6OTQ1LjczMDQ2ODc1LCJ5Ijo1MjV9LHsieCI6OTQ1LjczMDQ2ODc1LCJ5Ijo1NTB9LHsieCI6OTQ1LjczMDQ2ODc1LCJ5Ijo1OTl9LHsieCI6OTQ1LjczMDQ2ODc1LCJ5Ijo2NDh9LHsieCI6OTQ1LjczMDQ2ODc1LCJ5Ijo2NzN9LHsieCI6NzAxLjIyMjY1NjI1LCJ5Ijo3MjcuNTMxODkwNTAzOTIwNH1d" marker-start="url(#my-svg_flowchart-v2-pointStart)" marker-end="url(#my-svg_flowchart-v2-pointEnd)"/></g><g class="edgeLabels"><g class="edgeLabel"><g class="label" data-id="L_MARS_HOST_M1_0" transform="translate(0, 0)"><foreignObject width="0" height="0"><div xmlns="http://www.w3.org/1999/xhtml" class="labelBkg" style="display: table-cell; white-space: nowrap; line-height: 1.5; max-width: 200px; text-align: center;"><span class="edgeLabel"></span></div></foreignObject></g></g><g class="edgeLabel"><g class="label" data-id="L_MARS_HOST_W1_0" transform="translate(0, 0)"><foreignObject width="0" height="0"><div xmlns="http://www.w3.org/1999/xhtml" class="labelBkg" style="display: table-cell; white-space: nowrap; line-height: 1.5; max-width: 200px; text-align: center;"><span class="edgeLabel"></span></div></foreignObject></g></g><g class="edgeLabel"><g class="label" data-id="L_ZEUS_HOST_M2_0" transform="translate(0, 0)"><foreignObject width="0" height="0"><div xmlns="http://www.w3.org/1999/xhtml" class="labelBkg" style="display: table-cell; white-space: nowrap; line-height: 1.5; max-width: 200px; text-align: center;"><span class="edgeLabel"></span></div></foreignObject></g></g><g class="edgeLabel"><g class="label" data-id="L_ZEUS_HOST_W2_0" transform="translate(0, 0)"><foreignObject width="0" height="0"><div xmlns="http://www.w3.org/1999/xhtml" class="labelBkg" style="display: table-cell; white-space: nowrap; line-height: 1.5; max-width: 200px; text-align: center;"><span class="edgeLabel"></span></div></foreignObject></g></g><g class="edgeLabel"><g class="label" data-id="L_JUPITER_HOST_M3_0" transform="translate(0, 0)"><foreignObject width="0" height="0"><div xmlns="http://www.w3.org/1999/xhtml" class="labelBkg" style="display: table-cell; white-space: nowrap; line-height: 1.5; max-width: 200px; text-align: center;"><span class="edgeLabel"></span></div></foreignObject></g></g><g class="edgeLabel"><g class="label" data-id="L_JUPITER_HOST_W3_0" transform="translate(0, 0)"><foreignObject width="0" height="0"><div xmlns="http://www.w3.org/1999/xhtml" class="labelBkg" style="display: table-cell; white-space: nowrap; line-height: 1.5; max-width: 200px; text-align: center;"><span class="edgeLabel"></span></div></foreignObject></g></g><g class="edgeLabel"><g class="label" data-id="L_CLIENT_MARS_HOST_0" transform="translate(0, 0)"><foreignObject width="0" height="0"><div xmlns="http://www.w3.org/1999/xhtml" class="labelBkg" style="display: table-cell; white-space: nowrap; line-height: 1.5; max-width: 200px; text-align: center;"><span class="edgeLabel"></span></div></foreignObject></g></g><g class="edgeLabel"><g class="label" data-id="L_CLIENT_ZEUS_HOST_0" transform="translate(0, 0)"><foreignObject width="0" height="0"><div xmlns="http://www.w3.org/1999/xhtml" class="labelBkg" style="display: table-cell; white-space: nowrap; line-height: 1.5; max-width: 200px; text-align: center;"><span class="edgeLabel"></span></div></foreignObject></g></g><g class="edgeLabel"><g class="label" data-id="L_CLIENT_JUPITER_HOST_0" transform="translate(0, 0)"><foreignObject width="0" height="0"><div xmlns="http://www.w3.org/1999/xhtml" class="labelBkg" style="display: table-cell; white-space: nowrap; line-height: 1.5; max-width: 200px; text-align: center;"><span class="edgeLabel"></span></div></foreignObject></g></g><g class="edgeLabel" transform="translate(727.7840538024902, 299)"><g class="label" data-id="L_MARS_HOST_ZEUS_HOST_0" transform="translate(-62.5625, -24)"><foreignObject width="125.125" height="48"><div xmlns="http://www.w3.org/1999/xhtml" class="labelBkg" style="display: table-cell; white-space: nowrap; line-height: 1.5; max-width: 200px; text-align: center;"><span class="edgeLabel"><p>WireGuard<br />wg0 / UDP 51820</p></span></div></foreignObject></g></g><g class="edgeLabel" transform="translate(645.2215538024902, 449)"><g class="label" data-id="L_MARS_HOST_JUPITER_HOST_0" transform="translate(-62.5625, -24)"><foreignObject width="125.125" height="48"><div xmlns="http://www.w3.org/1999/xhtml" class="labelBkg" style="display: table-cell; white-space: nowrap; line-height: 1.5; max-width: 200px; text-align: center;"><span class="edgeLabel"><p>WireGuard<br />wg0 / UDP 51820</p></span></div></foreignObject></g></g><g class="edgeLabel" transform="translate(945.73046875, 599)"><g class="label" data-id="L_ZEUS_HOST_JUPITER_HOST_0" transform="translate(-62.5625, -24)"><foreignObject width="125.125" height="48"><div xmlns="http://www.w3.org/1999/xhtml" class="labelBkg" style="display: table-cell; white-space: nowrap; line-height: 1.5; max-width: 200px; text-align: center;"><span class="edgeLabel"><p>WireGuard<br />wg0 / UDP 51820</p></span></div></foreignObject></g></g></g><g class="nodes"><g class="node default" id="flowchart-CLIENT-0" transform="translate(575.8046875, 52.5)"><g class="basic label-container outer-path"><path d="M-17.328125 -19.5 C-3.938099490581717 -19.5, 9.451926018836566 -19.5, 17.328125 -19.5 C17.328125 -19.5, 17.328125 -19.5, 17.328125 -19.5 C17.740618310685736 -19.486772142395832, 18.153111621371472 -19.47354428479166, 18.5774942896239 -19.45993515863156 C19.059101823639146 -19.41347505904291, 19.54070935765439 -19.36701495945426, 19.821729652847864 -19.3399052695533 C20.18438165425071 -19.28127450637476, 20.547033655653554 -19.222643743196226, 21.05571825967676 -19.140403561325776 C21.466505987905833 -19.046643942997935, 21.87729371613491 -18.952884324670094, 22.27438938623539 -18.862249829261074 C22.61035913009957 -18.76253577282336, 22.94632887396375 -18.662821716385643, 23.472735251460602 -18.50658706670804 C23.908401081167927 -18.34625801412496, 24.344066910875252 -18.185928961541883, 24.645831595147794 -18.074876768247425 C25.03702433295025 -17.90170734754254, 25.428217070752705 -17.72853792683766, 25.78885791279238 -17.568892924097174 C26.22988366769201 -17.338810070256514, 26.670909422591645 -17.108727216415858, 26.897117264076783 -16.990714730406097 C27.320241694736577 -16.73421421398497, 27.74336612539637 -16.477713697563843, 27.966055573605697 -16.342718045390892 C28.27283718055417 -16.12872047674536, 28.57961878750264 -15.914722908099833, 28.991280344578712 -15.627565626425154 C29.37156892364668 -15.324295604522547, 29.75185750271465 -15.021025582619938, 29.96857870850187 -14.848196188198123 C30.17437541323225 -14.661297066044417, 30.38017211796263 -14.474397943890713, 30.893934736767985 -14.007812326905688 C31.2091341615304 -13.68234304248445, 31.524333586292816 -13.35687375806321, 31.763545942968648 -13.10986736009568 C32.02348685513782 -12.804525973604857, 32.28342776730699 -12.499184587114035, 32.57383890812658 -12.158051136245305 C32.74021154196754 -11.93512696375717, 32.9065841758085 -11.712202791269036, 33.321483964640635 -11.156274872382312 C33.474022937967 -10.921934046903395, 33.626561911293365 -10.687593221424478, 34.00340887860425 -10.108655082055241 C34.139443101150995 -9.867112544964758, 34.275477323697736 -9.625570007874275, 34.616811474273504 -9.019496659696287 C34.759559342709956 -8.723077656572903, 34.90230721114641 -8.42665865344952, 35.15917114880834 -7.893275190886684 C35.28799879744357 -7.5750684080445145, 35.41682644607881 -7.256861625202346, 35.628259229970325 -6.734618561215508 C35.715177178448535 -6.472835548893571, 35.802095126926744 -6.211052536571634, 36.02214813421488 -5.548287939305138 C36.10161039195599 -5.245263911377938, 36.18107264969709 -4.942239883450739, 36.33921928754556 -4.339158212148133 C36.43384760772369 -3.8532617877359785, 36.52847592790182 -3.367365363323824, 36.578169776581774 -3.1121979531509023 C36.61430212823694 -2.8319625688532803, 36.65043447989211 -2.5517271845556584, 36.73801770250937 -1.872449005199798 C36.769455318438816 -1.382782761111837, 36.80089293436826 -0.8931165170238761, 36.81810621591342 -0.6250057626472757 C36.81810621591342 -0.26063912997823496, 36.81810621591342 0.10372750269080577, 36.81810621591342 0.625005762647271 C36.80099904907794 0.8914636947663404, 36.783891882242465 1.1579216268854098, 36.73801770250937 1.8724490051997846 C36.68456219101498 2.2870393963655116, 36.6311066795206 2.701629787531238, 36.578169776581774 3.1121979531508885 C36.48526559777611 3.5892412760128307, 36.39236141897045 4.0662845988747724, 36.33921928754556 4.339158212148129 C36.27163280927951 4.59689474594157, 36.20404633101345 4.85463127973501, 36.02214813421489 5.548287939305125 C35.88771167831728 5.953189124928297, 35.753275222419674 6.358090310551468, 35.628259229970325 6.734618561215495 C35.44805694069323 7.179721699704187, 35.26785465141612 7.62482483819288, 35.15917114880834 7.893275190886679 C35.03418242620057 8.15281694771196, 34.9091937035928 8.412358704537242, 34.616811474273504 9.019496659696284 C34.379606020495935 9.440678962535147, 34.14240056671837 9.861861265374008, 34.00340887860425 10.108655082055236 C33.77250336658389 10.463387955330258, 33.54159785456353 10.818120828605283, 33.32148396464064 11.156274872382301 C33.05027967872374 11.519663908292229, 32.77907539280684 11.883052944202154, 32.57383890812658 12.158051136245302 C32.32658256751394 12.44849250321326, 32.079326226901294 12.738933870181219, 31.76354594296866 13.10986736009567 C31.4426873450369 13.441180205441013, 31.121828747105145 13.772493050786354, 30.89393473676799 14.007812326905684 C30.66413164617927 14.21651341352177, 30.43432855559055 14.425214500137857, 29.968578708501887 14.848196188198111 C29.59403517937732 15.146884685653053, 29.21949165025276 15.445573183107996, 28.991280344578715 15.627565626425152 C28.649969784318397 15.865649098166731, 28.308659224058076 16.10373256990831, 27.966055573605708 16.34271804539089 C27.66000643087125 16.528246834260916, 27.35395728813679 16.713775623130942, 26.897117264076787 16.990714730406093 C26.643952046261532 17.12279086238025, 26.390786828446277 17.25486699435441, 25.788857912792388 17.56889292409717 C25.52907280972796 17.683892082972513, 25.269287706663533 17.798891241847855, 24.645831595147804 18.07487676824742 C24.365663055291048 18.1779813807643, 24.08549451543429 18.281085993281177, 23.472735251460616 18.506587066708033 C23.16739137527064 18.597211526378505, 22.862047499080663 18.68783598604898, 22.274389386235413 18.86224982926107 C21.894641557337632 18.948924793120817, 21.51489372843985 19.03559975698056, 21.055718259676766 19.140403561325773 C20.59552321948732 19.214804326557765, 20.135328179297876 19.289205091789757, 19.82172965284788 19.3399052695533 C19.43245401894755 19.37745822178322, 19.043178385047224 19.415011174013138, 18.5774942896239 19.45993515863156 C18.20812145409256 19.47178022652644, 17.838748618561223 19.483625294421323, 17.328125000000004 19.5 C17.328125000000004 19.5, 17.328125 19.5, 17.328125 19.5 C7.812071128482971 19.5, -1.7039827430340573 19.5, -17.328124999999996 19.5 C-17.7773893321727 19.485592967307195, -18.226653664345402 19.47118593461439, -18.577494289623893 19.45993515863156 C-19.013714722543792 19.417853498099603, -19.449935155463688 19.375771837567648, -19.82172965284787 19.3399052695533 C-20.28146792471554 19.26557835108128, -20.741206196583203 19.191251432609263, -21.05571825967676 19.140403561325773 C-21.34466080116981 19.074454311756277, -21.633603342662862 19.008505062186785, -22.274389386235388 18.862249829261074 C-22.519691198881866 18.78944553888309, -22.764993011528347 18.716641248505105, -23.47273525146059 18.506587066708043 C-23.796401863948436 18.38747476137115, -24.120068476436277 18.268362456034257, -24.645831595147797 18.074876768247425 C-25.029318948704915 17.90511829257585, -25.412806302262034 17.735359816904275, -25.78885791279238 17.568892924097174 C-26.190048379660364 17.359592114506906, -26.591238846528352 17.150291304916635, -26.89711726407678 16.990714730406097 C-27.1437438688712 16.841208233240916, -27.39037047366562 16.691701736075736, -27.966055573605686 16.3427180453909 C-28.243139156984412 16.149436532380903, -28.52022274036314 15.95615501937091, -28.991280344578712 15.627565626425156 C-29.33022660445654 15.357265003911365, -29.669172864334374 15.086964381397575, -29.96857870850187 14.848196188198125 C-30.245343808946 14.596845446778046, -30.522108909390134 14.345494705357964, -30.893934736767974 14.007812326905697 C-31.197290086811176 13.694573022048669, -31.500645436854374 13.381333717191639, -31.763545942968655 13.109867360095677 C-32.07899074430137 12.739327947132585, -32.394435545634096 12.368788534169493, -32.573838908126575 12.158051136245307 C-32.78458324877209 11.875672918984723, -32.99532758941759 11.59329470172414, -33.321483964640635 11.156274872382316 C-33.496159298444866 10.887926652764309, -33.6708346322491 10.619578433146302, -34.00340887860425 10.108655082055249 C-34.1778446074765 9.798926781909651, -34.35228033634875 9.489198481764056, -34.616811474273504 9.019496659696289 C-34.816656262401246 8.604514681155571, -35.01650105052898 8.189532702614853, -35.15917114880834 7.893275190886686 C-35.288359120296064 7.574178403632499, -35.41754709178379 7.255081616378312, -35.628259229970325 6.73461856121551 C-35.734437732849784 6.414825827789597, -35.84061623572925 6.095033094363684, -36.02214813421488 5.5482879393051325 C-36.133105742772095 5.125158488544718, -36.244063351329316 4.702029037784304, -36.33921928754556 4.339158212148136 C-36.420223044347615 3.92322104111964, -36.50122680114967 3.5072838700911437, -36.578169776581774 3.112197953150904 C-36.6166202542136 2.813983641544099, -36.65507073184543 2.515769329937294, -36.73801770250937 1.872449005199809 C-36.76901553643202 1.3896327208532853, -36.80001337035468 0.9068164365067616, -36.81810621591342 0.6250057626472781 C-36.81810621591342 0.24786847062989487, -36.81810621591342 -0.1292688213874884, -36.81810621591342 -0.6250057626472687 C-36.80022593445036 -0.9035055791377544, -36.78234565298731 -1.1820053956282401, -36.73801770250937 -1.8724490051997822 C-36.68095023309139 -2.315053028759164, -36.62388276367341 -2.757657052318546, -36.578169776581774 -3.112197953150895 C-36.50390265087865 -3.493543947273874, -36.42963552517552 -3.8748899413968525, -36.33921928754556 -4.339158212148126 C-36.23356497679748 -4.742063889898487, -36.1279106660494 -5.144969567648849, -36.02214813421489 -5.548287939305123 C-35.91561914140333 -5.869136292563507, -35.80909014859178 -6.189984645821891, -35.62825922997033 -6.734618561215485 C-35.5276307119457 -6.983172946256373, -35.42700219392106 -7.231727331297262, -35.15917114880834 -7.893275190886676 C-34.98320482560504 -8.258673026094492, -34.807238502401745 -8.624070861302307, -34.616811474273504 -9.019496659696282 C-34.467598212590815 -9.284439915295055, -34.31838495090813 -9.549383170893828, -34.00340887860425 -10.108655082055243 C-33.799383376659264 -10.42209304156113, -33.595357874714274 -10.735531001067018, -33.32148396464064 -11.156274872382308 C-33.090798182392945 -11.465372804687124, -32.86011240014525 -11.77447073699194, -32.57383890812659 -12.158051136245302 C-32.31295985172132 -12.464494520337766, -32.052080795316044 -12.77093790443023, -31.763545942968662 -13.10986736009567 C-31.55622337783743 -13.323944930092821, -31.348900812706198 -13.538022500089971, -30.893934736767996 -14.007812326905677 C-30.544424857770437 -14.325227951486609, -30.194914978772882 -14.64264357606754, -29.968578708501887 -14.848196188198107 C-29.771065681254434 -15.005707571385555, -29.573552654006985 -15.163218954573004, -28.99128034457872 -15.627565626425149 C-28.583325657592674 -15.912137155992845, -28.175370970606632 -16.19670868556054, -27.96605557360571 -16.342718045390885 C-27.638813677604706 -16.541094005833536, -27.311571781603696 -16.739469966276186, -26.89711726407679 -16.99071473040609 C-26.655233689543344 -17.116905236306366, -26.413350115009898 -17.24309574220664, -25.788857912792388 -17.56889292409717 C-25.446093435413466 -17.72062459048586, -25.103328958034545 -17.872356256874546, -24.645831595147804 -18.07487676824742 C-24.369596518545524 -18.176533829926118, -24.09336144194324 -18.27819089160481, -23.47273525146062 -18.506587066708033 C-23.19108098659884 -18.590180574085604, -22.909426721737063 -18.673774081463172, -22.274389386235413 -18.862249829261067 C-22.029150715089607 -18.91822395561821, -21.7839120439438 -18.974198081975352, -21.055718259676766 -19.140403561325773 C-20.77176940106153 -19.186310210730397, -20.487820542446297 -19.232216860135022, -19.821729652847882 -19.3399052695533 C-19.489523526364916 -19.37195279503879, -19.157317399881947 -19.40400032052428, -18.577494289623903 -19.45993515863156 C-18.234343145934904 -19.470939347906484, -17.891192002245905 -19.481943537181408, -17.328125000000007 -19.5 C-17.328125000000004 -19.5, -17.328125000000004 -19.5, -17.328125 -19.5" stroke="none" stroke-width="0" fill="#1a1a2e" style=""/><path d="M-17.328125 -19.5 C-7.6246576821216205 -19.5, 2.078809635756759 -19.5, 17.328125 -19.5 M-17.328125 -19.5 C-4.389529568280896 -19.5, 8.549065863438209 -19.5, 17.328125 -19.5 M17.328125 -19.5 C17.328125 -19.5, 17.328125 -19.5, 17.328125 -19.5 M17.328125 -19.5 C17.328125 -19.5, 17.328125 -19.5, 17.328125 -19.5 M17.328125 -19.5 C17.729970741015034 -19.487113589230933, 18.131816482030068 -19.474227178461867, 18.5774942896239 -19.45993515863156 M17.328125 -19.5 C17.767462632775118 -19.485911297235727, 18.206800265550235 -19.471822594471455, 18.5774942896239 -19.45993515863156 M18.5774942896239 -19.45993515863156 C18.857286348184267 -19.432943955241424, 19.13707840674464 -19.405952751851284, 19.821729652847864 -19.3399052695533 M18.5774942896239 -19.45993515863156 C18.82744387476389 -19.43582282276146, 19.077393459903885 -19.411710486891362, 19.821729652847864 -19.3399052695533 M19.821729652847864 -19.3399052695533 C20.17836501142022 -19.282247230527833, 20.535000369992577 -19.224589191502368, 21.05571825967676 -19.140403561325776 M19.821729652847864 -19.3399052695533 C20.180930262015014 -19.281832500705484, 20.540130871182164 -19.223759731857665, 21.05571825967676 -19.140403561325776 M21.05571825967676 -19.140403561325776 C21.449770299636988 -19.050463754634727, 21.843822339597217 -18.960523947943678, 22.27438938623539 -18.862249829261074 M21.05571825967676 -19.140403561325776 C21.511561984716128 -19.03636020574384, 21.9674057097555 -18.932316850161907, 22.27438938623539 -18.862249829261074 M22.27438938623539 -18.862249829261074 C22.515611586131545 -18.790656346533062, 22.7568337860277 -18.71906286380505, 23.472735251460602 -18.50658706670804 M22.27438938623539 -18.862249829261074 C22.73224296361896 -18.7263612908161, 23.190096541002525 -18.59047275237113, 23.472735251460602 -18.50658706670804 M23.472735251460602 -18.50658706670804 C23.901440541244263 -18.348819557159395, 24.33014583102792 -18.191052047610754, 24.645831595147794 -18.074876768247425 M23.472735251460602 -18.50658706670804 C23.71181717503001 -18.41860270878542, 23.950899098599418 -18.330618350862807, 24.645831595147794 -18.074876768247425 M24.645831595147794 -18.074876768247425 C24.992694000153545 -17.921331070859043, 25.339556405159296 -17.767785373470662, 25.78885791279238 -17.568892924097174 M24.645831595147794 -18.074876768247425 C25.092954940322254 -17.876948526781476, 25.540078285496715 -17.679020285315524, 25.78885791279238 -17.568892924097174 M25.78885791279238 -17.568892924097174 C26.194281609110025 -17.35738364141453, 26.599705305427673 -17.145874358731888, 26.897117264076783 -16.990714730406097 M25.78885791279238 -17.568892924097174 C26.060516619501527 -17.42716875081272, 26.332175326210674 -17.285444577528263, 26.897117264076783 -16.990714730406097 M26.897117264076783 -16.990714730406097 C27.284561081770924 -16.755844011247305, 27.672004899465062 -16.520973292088517, 27.966055573605697 -16.342718045390892 M26.897117264076783 -16.990714730406097 C27.230788401532987 -16.788441326010886, 27.56445953898919 -16.58616792161568, 27.966055573605697 -16.342718045390892 M27.966055573605697 -16.342718045390892 C28.349313890640744 -16.07537363441239, 28.732572207675787 -15.808029223433888, 28.991280344578712 -15.627565626425154 M27.966055573605697 -16.342718045390892 C28.34365316035377 -16.079322314811517, 28.72125074710185 -15.81592658423214, 28.991280344578712 -15.627565626425154 M28.991280344578712 -15.627565626425154 C29.271648425851765 -15.403979542517876, 29.55201650712482 -15.180393458610597, 29.96857870850187 -14.848196188198123 M28.991280344578712 -15.627565626425154 C29.327572571498074 -15.35938152456896, 29.66386479841744 -15.091197422712764, 29.96857870850187 -14.848196188198123 M29.96857870850187 -14.848196188198123 C30.264591302732526 -14.579365382181901, 30.560603896963183 -14.310534576165677, 30.893934736767985 -14.007812326905688 M29.96857870850187 -14.848196188198123 C30.285062653706216 -14.56077384286986, 30.601546598910566 -14.273351497541597, 30.893934736767985 -14.007812326905688 M30.893934736767985 -14.007812326905688 C31.09281118103218 -13.802456070143172, 31.291687625296372 -13.597099813380657, 31.763545942968648 -13.10986736009568 M30.893934736767985 -14.007812326905688 C31.12830468232604 -13.765806115986612, 31.362674627884093 -13.523799905067536, 31.763545942968648 -13.10986736009568 M31.763545942968648 -13.10986736009568 C32.07074971004148 -12.749008334902383, 32.377953477114325 -12.388149309709085, 32.57383890812658 -12.158051136245305 M31.763545942968648 -13.10986736009568 C31.997213298976337 -12.835388387679831, 32.23088065498403 -12.56090941526398, 32.57383890812658 -12.158051136245305 M32.57383890812658 -12.158051136245305 C32.72770391153538 -11.951886049067696, 32.88156891494417 -11.745720961890086, 33.321483964640635 -11.156274872382312 M32.57383890812658 -12.158051136245305 C32.76370594187463 -11.903646608265525, 32.953572975622684 -11.649242080285747, 33.321483964640635 -11.156274872382312 M33.321483964640635 -11.156274872382312 C33.53915922527856 -10.821867218050647, 33.756834485916485 -10.487459563718982, 34.00340887860425 -10.108655082055241 M33.321483964640635 -11.156274872382312 C33.54328413409021 -10.815530250422848, 33.76508430353978 -10.474785628463385, 34.00340887860425 -10.108655082055241 M34.00340887860425 -10.108655082055241 C34.16818342008728 -9.81608119842051, 34.33295796157031 -9.52350731478578, 34.616811474273504 -9.019496659696287 M34.00340887860425 -10.108655082055241 C34.185704677118395 -9.784970432342098, 34.36800047563254 -9.461285782628956, 34.616811474273504 -9.019496659696287 M34.616811474273504 -9.019496659696287 C34.77437811894854 -8.692306150642455, 34.931944763623584 -8.365115641588625, 35.15917114880834 -7.893275190886684 M34.616811474273504 -9.019496659696287 C34.786005876449245 -8.668160863398095, 34.955200278624986 -8.316825067099902, 35.15917114880834 -7.893275190886684 M35.15917114880834 -7.893275190886684 C35.32897457717062 -7.4738574399059035, 35.4987780055329 -7.0544396889251235, 35.628259229970325 -6.734618561215508 M35.15917114880834 -7.893275190886684 C35.30476692739427 -7.533650802876557, 35.4503627059802 -7.17402641486643, 35.628259229970325 -6.734618561215508 M35.628259229970325 -6.734618561215508 C35.759386835261104 -6.339683106426341, 35.89051444055189 -5.944747651637173, 36.02214813421488 -5.548287939305138 M35.628259229970325 -6.734618561215508 C35.73376893847237 -6.41684012989645, 35.83927864697442 -6.099061698577392, 36.02214813421488 -5.548287939305138 M36.02214813421488 -5.548287939305138 C36.1028750045864 -5.24044139533158, 36.18360187495793 -4.932594851358021, 36.33921928754556 -4.339158212148133 M36.02214813421488 -5.548287939305138 C36.08619299995481 -5.304057109018386, 36.15023786569474 -5.059826278731633, 36.33921928754556 -4.339158212148133 M36.33921928754556 -4.339158212148133 C36.42735471581458 -3.886601415416056, 36.51549014408361 -3.434044618683979, 36.578169776581774 -3.1121979531509023 M36.33921928754556 -4.339158212148133 C36.41586872261913 -3.945579562909176, 36.49251815769271 -3.552000913670219, 36.578169776581774 -3.1121979531509023 M36.578169776581774 -3.1121979531509023 C36.63478260227224 -2.673120056562593, 36.6913954279627 -2.2340421599742837, 36.73801770250937 -1.872449005199798 M36.578169776581774 -3.1121979531509023 C36.632183405367535 -2.693278914485975, 36.686197034153295 -2.274359875821047, 36.73801770250937 -1.872449005199798 M36.73801770250937 -1.872449005199798 C36.75735385223382 -1.5712728653823373, 36.77669000195827 -1.2700967255648767, 36.81810621591342 -0.6250057626472757 M36.73801770250937 -1.872449005199798 C36.76897711922836 -1.3902310998100984, 36.79993653594735 -0.908013194420399, 36.81810621591342 -0.6250057626472757 M36.81810621591342 -0.6250057626472757 C36.81810621591342 -0.1637795694740829, 36.81810621591342 0.2974466236991099, 36.81810621591342 0.625005762647271 M36.81810621591342 -0.6250057626472757 C36.81810621591342 -0.20903669391201946, 36.81810621591342 0.2069323748232368, 36.81810621591342 0.625005762647271 M36.81810621591342 0.625005762647271 C36.795643002972824 0.9748884361761094, 36.77317979003223 1.3247711097049477, 36.73801770250937 1.8724490051997846 M36.81810621591342 0.625005762647271 C36.79288478794991 1.017849861549181, 36.76766335998639 1.4106939604510904, 36.73801770250937 1.8724490051997846 M36.73801770250937 1.8724490051997846 C36.693033063611864 2.221340981267109, 36.64804842471436 2.570232957334434, 36.578169776581774 3.1121979531508885 M36.73801770250937 1.8724490051997846 C36.68848309022307 2.2566296763766927, 36.63894847793678 2.6408103475536002, 36.578169776581774 3.1121979531508885 M36.578169776581774 3.1121979531508885 C36.51873438883564 3.417386107553664, 36.4592990010895 3.7225742619564395, 36.33921928754556 4.339158212148129 M36.578169776581774 3.1121979531508885 C36.48640068490737 3.583412843494549, 36.39463159323297 4.054627733838209, 36.33921928754556 4.339158212148129 M36.33921928754556 4.339158212148129 C36.238912412588455 4.7216717996341915, 36.13860553763134 5.104185387120255, 36.02214813421489 5.548287939305125 M36.33921928754556 4.339158212148129 C36.218155012091394 4.80082876404377, 36.09709073663722 5.262499315939411, 36.02214813421489 5.548287939305125 M36.02214813421489 5.548287939305125 C35.9103471765967 5.885014610587562, 35.798546218978515 6.221741281869997, 35.628259229970325 6.734618561215495 M36.02214813421489 5.548287939305125 C35.94223596083251 5.788970673257078, 35.862323787450144 6.02965340720903, 35.628259229970325 6.734618561215495 M35.628259229970325 6.734618561215495 C35.53424297461121 6.966840529633151, 35.440226719252095 7.199062498050808, 35.15917114880834 7.893275190886679 M35.628259229970325 6.734618561215495 C35.48614856347611 7.085634654979034, 35.344037896981895 7.436650748742574, 35.15917114880834 7.893275190886679 M35.15917114880834 7.893275190886679 C35.04480298083569 8.130763138768666, 34.93043481286304 8.368251086650652, 34.616811474273504 9.019496659696284 M35.15917114880834 7.893275190886679 C34.9588550214723 8.309235915378471, 34.758538894136265 8.725196639870264, 34.616811474273504 9.019496659696284 M34.616811474273504 9.019496659696284 C34.39674202662377 9.4102522484464, 34.176672578974035 9.801007837196515, 34.00340887860425 10.108655082055236 M34.616811474273504 9.019496659696284 C34.394721553864066 9.413839802426303, 34.172631633454635 9.808182945156323, 34.00340887860425 10.108655082055236 M34.00340887860425 10.108655082055236 C33.83084422141052 10.373760735603476, 33.658279564216805 10.638866389151714, 33.32148396464064 11.156274872382301 M34.00340887860425 10.108655082055236 C33.75647960136132 10.488004761695557, 33.5095503241184 10.867354441335875, 33.32148396464064 11.156274872382301 M33.32148396464064 11.156274872382301 C33.05290920998871 11.516140575952397, 32.784334455336776 11.87600627952249, 32.57383890812658 12.158051136245302 M33.32148396464064 11.156274872382301 C33.09430828993834 11.460669580353661, 32.86713261523604 11.765064288325021, 32.57383890812658 12.158051136245302 M32.57383890812658 12.158051136245302 C32.3490362576317 12.422117121149773, 32.12423360713682 12.686183106054246, 31.76354594296866 13.10986736009567 M32.57383890812658 12.158051136245302 C32.29388557474563 12.486900251430509, 32.01393224136468 12.815749366615716, 31.76354594296866 13.10986736009567 M31.76354594296866 13.10986736009567 C31.55788208176753 13.322232182102862, 31.352218220566407 13.534597004110054, 30.89393473676799 14.007812326905684 M31.76354594296866 13.10986736009567 C31.487355543996173 13.395056622688227, 31.21116514502369 13.680245885280783, 30.89393473676799 14.007812326905684 M30.89393473676799 14.007812326905684 C30.706037184817216 14.17845591209058, 30.518139632866447 14.349099497275477, 29.968578708501887 14.848196188198111 M30.89393473676799 14.007812326905684 C30.59606689685842 14.278328017960385, 30.298199056948853 14.548843709015086, 29.968578708501887 14.848196188198111 M29.968578708501887 14.848196188198111 C29.771206924328443 15.005594933792676, 29.573835140154994 15.16299367938724, 28.991280344578715 15.627565626425152 M29.968578708501887 14.848196188198111 C29.60524777333359 15.137942940352586, 29.241916838165295 15.42768969250706, 28.991280344578715 15.627565626425152 M28.991280344578715 15.627565626425152 C28.603610593545337 15.897987262792993, 28.215940842511955 16.168408899160834, 27.966055573605708 16.34271804539089 M28.991280344578715 15.627565626425152 C28.721793295858184 15.815548125706277, 28.452306247137653 16.003530624987402, 27.966055573605708 16.34271804539089 M27.966055573605708 16.34271804539089 C27.627664991983966 16.547852404573778, 27.289274410362225 16.752986763756667, 26.897117264076787 16.990714730406093 M27.966055573605708 16.34271804539089 C27.548859877124848 16.595624528311635, 27.131664180643984 16.84853101123238, 26.897117264076787 16.990714730406093 M26.897117264076787 16.990714730406093 C26.464564204058853 17.21637738475399, 26.032011144040922 17.442040039101887, 25.788857912792388 17.56889292409717 M26.897117264076787 16.990714730406093 C26.55764056647217 17.167819506101218, 26.218163868867556 17.344924281796345, 25.788857912792388 17.56889292409717 M25.788857912792388 17.56889292409717 C25.33505916520559 17.769776168192287, 24.88126041761879 17.9706594122874, 24.645831595147804 18.07487676824742 M25.788857912792388 17.56889292409717 C25.44629220050856 17.720536603074418, 25.10372648822473 17.872180282051666, 24.645831595147804 18.07487676824742 M24.645831595147804 18.07487676824742 C24.34377857054089 18.186035073450316, 24.041725545933975 18.297193378653212, 23.472735251460616 18.506587066708033 M24.645831595147804 18.07487676824742 C24.269849931535216 18.213241495993252, 23.893868267922628 18.351606223739083, 23.472735251460616 18.506587066708033 M23.472735251460616 18.506587066708033 C23.14773521464014 18.603045371676345, 22.822735177819663 18.69950367664466, 22.274389386235413 18.86224982926107 M23.472735251460616 18.506587066708033 C23.211143296542847 18.584226185803438, 22.949551341625078 18.66186530489884, 22.274389386235413 18.86224982926107 M22.274389386235413 18.86224982926107 C21.811689295262013 18.967858105625478, 21.348989204288618 19.07346638198988, 21.055718259676766 19.140403561325773 M22.274389386235413 18.86224982926107 C21.853484590465975 18.958318602234964, 21.432579794696537 19.054387375208854, 21.055718259676766 19.140403561325773 M21.055718259676766 19.140403561325773 C20.689943679849804 19.199539158767966, 20.324169100022846 19.258674756210155, 19.82172965284788 19.3399052695533 M21.055718259676766 19.140403561325773 C20.689249034134573 19.199651463700146, 20.322779808592376 19.25889936607452, 19.82172965284788 19.3399052695533 M19.82172965284788 19.3399052695533 C19.359210248509847 19.384523960228822, 18.896690844171815 19.429142650904343, 18.5774942896239 19.45993515863156 M19.82172965284788 19.3399052695533 C19.528350954435822 19.368207159749602, 19.234972256023763 19.39650904994591, 18.5774942896239 19.45993515863156 M18.5774942896239 19.45993515863156 C18.07894516543597 19.475922658677263, 17.580396041248044 19.49191015872297, 17.328125000000004 19.5 M18.5774942896239 19.45993515863156 C18.096862114439933 19.475348096995933, 17.616229939255962 19.490761035360308, 17.328125000000004 19.5 M17.328125000000004 19.5 C17.328125000000004 19.5, 17.328125000000004 19.5, 17.328125 19.5 M17.328125000000004 19.5 C17.328125000000004 19.5, 17.328125000000004 19.5, 17.328125 19.5 M17.328125 19.5 C6.705212928120929 19.5, -3.917699143758142 19.5, -17.328124999999996 19.5 M17.328125 19.5 C3.734091017890629 19.5, -9.859942964218742 19.5, -17.328124999999996 19.5 M-17.328124999999996 19.5 C-17.590589190499315 19.49158328426624, -17.853053380998634 19.483166568532486, -18.577494289623893 19.45993515863156 M-17.328124999999996 19.5 C-17.726023208765884 19.48724017890676, -18.123921417531772 19.474480357813515, -18.577494289623893 19.45993515863156 M-18.577494289623893 19.45993515863156 C-19.043177778855057 19.415011232491764, -19.508861268086225 19.37008730635197, -19.82172965284787 19.3399052695533 M-18.577494289623893 19.45993515863156 C-19.01395857946443 19.41782997351575, -19.450422869304965 19.375724788399943, -19.82172965284787 19.3399052695533 M-19.82172965284787 19.3399052695533 C-20.195067295264316 19.279546934804067, -20.568404937680757 19.21918860005483, -21.05571825967676 19.140403561325773 M-19.82172965284787 19.3399052695533 C-20.183285575655937 19.28145171186175, -20.544841498464 19.2229981541702, -21.05571825967676 19.140403561325773 M-21.05571825967676 19.140403561325773 C-21.464139296022406 19.047184124976216, -21.872560332368053 18.953964688626662, -22.274389386235388 18.862249829261074 M-21.05571825967676 19.140403561325773 C-21.33680295481414 19.07624781390972, -21.617887649951523 19.01209206649367, -22.274389386235388 18.862249829261074 M-22.274389386235388 18.862249829261074 C-22.64375030290817 18.75262544800761, -23.013111219580956 18.64300106675414, -23.47273525146059 18.506587066708043 M-22.274389386235388 18.862249829261074 C-22.650523454005004 18.750615212315065, -23.026657521774617 18.638980595369055, -23.47273525146059 18.506587066708043 M-23.47273525146059 18.506587066708043 C-23.866952135223105 18.36151160938251, -24.26116901898562 18.216436152056982, -24.645831595147797 18.074876768247425 M-23.47273525146059 18.506587066708043 C-23.882653106900158 18.355733506667164, -24.292570962339724 18.20487994662629, -24.645831595147797 18.074876768247425 M-24.645831595147797 18.074876768247425 C-24.90393795679437 17.960620738399673, -25.16204431844094 17.846364708551917, -25.78885791279238 17.568892924097174 M-24.645831595147797 18.074876768247425 C-25.07667211496042 17.884156450556308, -25.507512634773047 17.693436132865187, -25.78885791279238 17.568892924097174 M-25.78885791279238 17.568892924097174 C-26.03405515155229 17.440973681692455, -26.279252390312198 17.31305443928774, -26.89711726407678 16.990714730406097 M-25.78885791279238 17.568892924097174 C-26.10516537591374 17.40387552319136, -26.421472839035097 17.23885812228555, -26.89711726407678 16.990714730406097 M-26.89711726407678 16.990714730406097 C-27.251715365851798 16.77575527726033, -27.606313467626816 16.560795824114564, -27.966055573605686 16.3427180453909 M-26.89711726407678 16.990714730406097 C-27.116176417852113 16.85791978405301, -27.335235571627443 16.725124837699926, -27.966055573605686 16.3427180453909 M-27.966055573605686 16.3427180453909 C-28.244265920264926 16.148650551093215, -28.522476266924166 15.95458305679553, -28.991280344578712 15.627565626425156 M-27.966055573605686 16.3427180453909 C-28.310116923449584 16.10271574191558, -28.654178273293482 15.862713438440261, -28.991280344578712 15.627565626425156 M-28.991280344578712 15.627565626425156 C-29.379755805507482 15.317766784100636, -29.76823126643625 15.007967941776116, -29.96857870850187 14.848196188198125 M-28.991280344578712 15.627565626425156 C-29.38184396888856 15.316101529372585, -29.772407593198412 15.004637432320013, -29.96857870850187 14.848196188198125 M-29.96857870850187 14.848196188198125 C-30.271349359922198 14.573227893450635, -30.57412001134253 14.298259598703147, -30.893934736767974 14.007812326905697 M-29.96857870850187 14.848196188198125 C-30.300399377325267 14.546845436266512, -30.632220046148664 14.245494684334897, -30.893934736767974 14.007812326905697 M-30.893934736767974 14.007812326905697 C-31.222586400460766 13.668452501339488, -31.551238064153562 13.32909267577328, -31.763545942968655 13.109867360095677 M-30.893934736767974 14.007812326905697 C-31.21656328948322 13.674671857930417, -31.539191842198463 13.341531388955136, -31.763545942968655 13.109867360095677 M-31.763545942968655 13.109867360095677 C-32.038279684022775 12.787149475060783, -32.313013425076896 12.464431590025887, -32.573838908126575 12.158051136245307 M-31.763545942968655 13.109867360095677 C-32.028324193047425 12.798843761243916, -32.29310244312619 12.487820162392154, -32.573838908126575 12.158051136245307 M-32.573838908126575 12.158051136245307 C-32.78551445860371 11.874425182645306, -32.997190009080846 11.590799229045306, -33.321483964640635 11.156274872382316 M-32.573838908126575 12.158051136245307 C-32.84035153081966 11.800948501635984, -33.106864153512745 11.443845867026662, -33.321483964640635 11.156274872382316 M-33.321483964640635 11.156274872382316 C-33.55699895723021 10.794460599134133, -33.79251394981979 10.43264632588595, -34.00340887860425 10.108655082055249 M-33.321483964640635 11.156274872382316 C-33.553024112864286 10.800567027475362, -33.78456426108793 10.444859182568408, -34.00340887860425 10.108655082055249 M-34.00340887860425 10.108655082055249 C-34.202306964448944 9.75549139002282, -34.40120505029365 9.402327697990392, -34.616811474273504 9.019496659696289 M-34.00340887860425 10.108655082055249 C-34.22688675471619 9.711847483429667, -34.45036463082813 9.315039884804085, -34.616811474273504 9.019496659696289 M-34.616811474273504 9.019496659696289 C-34.75869162942635 8.724879481772403, -34.90057178457919 8.430262303848515, -35.15917114880834 7.893275190886686 M-34.616811474273504 9.019496659696289 C-34.795452499637754 8.648544748221804, -34.974093525002 8.277592836747319, -35.15917114880834 7.893275190886686 M-35.15917114880834 7.893275190886686 C-35.289207918012885 7.572081856861571, -35.41924468721742 7.250888522836455, -35.628259229970325 6.73461856121551 M-35.15917114880834 7.893275190886686 C-35.33342397325303 7.46286734555912, -35.50767679769773 7.032459500231553, -35.628259229970325 6.73461856121551 M-35.628259229970325 6.73461856121551 C-35.72816545654465 6.433716924669148, -35.82807168311898 6.132815288122786, -36.02214813421488 5.5482879393051325 M-35.628259229970325 6.73461856121551 C-35.760032707794664 6.337737841261084, -35.891806185619 5.9408571213066566, -36.02214813421488 5.5482879393051325 M-36.02214813421488 5.5482879393051325 C-36.132119276988035 5.128920310116315, -36.2420904197612 4.709552680927496, -36.33921928754556 4.339158212148136 M-36.02214813421488 5.5482879393051325 C-36.12144217157903 5.169636740527624, -36.22073620894318 4.790985541750115, -36.33921928754556 4.339158212148136 M-36.33921928754556 4.339158212148136 C-36.41266563628242 3.962026734275651, -36.486111985019285 3.584895256403166, -36.578169776581774 3.112197953150904 M-36.33921928754556 4.339158212148136 C-36.410608268127945 3.972590884923965, -36.481997248710336 3.6060235576997943, -36.578169776581774 3.112197953150904 M-36.578169776581774 3.112197953150904 C-36.636034911377216 2.663407394440785, -36.69390004617266 2.2146168357306655, -36.73801770250937 1.872449005199809 M-36.578169776581774 3.112197953150904 C-36.61569540307724 2.8211566043252008, -36.653221029572705 2.530115255499497, -36.73801770250937 1.872449005199809 M-36.73801770250937 1.872449005199809 C-36.76529631156812 1.4475626502127668, -36.792574920626876 1.0226762952257245, -36.81810621591342 0.6250057626472781 M-36.73801770250937 1.872449005199809 C-36.765197740095 1.4490979804722168, -36.79237777768062 1.0257469557446246, -36.81810621591342 0.6250057626472781 M-36.81810621591342 0.6250057626472781 C-36.81810621591342 0.19426905625309915, -36.81810621591342 -0.23646765014107984, -36.81810621591342 -0.6250057626472687 M-36.81810621591342 0.6250057626472781 C-36.81810621591342 0.26555787461909036, -36.81810621591342 -0.09389001340909742, -36.81810621591342 -0.6250057626472687 M-36.81810621591342 -0.6250057626472687 C-36.80048888499625 -0.8994099121357728, -36.78287155407907 -1.173814061624277, -36.73801770250937 -1.8724490051997822 M-36.81810621591342 -0.6250057626472687 C-36.790407477573 -1.056435970318462, -36.76270873923258 -1.4878661779896554, -36.73801770250937 -1.8724490051997822 M-36.73801770250937 -1.8724490051997822 C-36.68514118448387 -2.2825488373560128, -36.632264666458376 -2.692648669512243, -36.578169776581774 -3.112197953150895 M-36.73801770250937 -1.8724490051997822 C-36.69047627666835 -2.241170915906315, -36.64293485082733 -2.6098928266128483, -36.578169776581774 -3.112197953150895 M-36.578169776581774 -3.112197953150895 C-36.504803613516586 -3.488917694546573, -36.431437450451405 -3.865637435942251, -36.33921928754556 -4.339158212148126 M-36.578169776581774 -3.112197953150895 C-36.528060728103526 -3.369497326535552, -36.47795167962528 -3.6267966999202086, -36.33921928754556 -4.339158212148126 M-36.33921928754556 -4.339158212148126 C-36.24409813132618 -4.701896406582503, -36.148976975106805 -5.064634601016881, -36.02214813421489 -5.548287939305123 M-36.33921928754556 -4.339158212148126 C-36.213675041459794 -4.817912833693605, -36.08813079537403 -5.296667455239083, -36.02214813421489 -5.548287939305123 M-36.02214813421489 -5.548287939305123 C-35.90835996956115 -5.890999761560219, -35.7945718049074 -6.233711583815316, -35.62825922997033 -6.734618561215485 M-36.02214813421489 -5.548287939305123 C-35.916254616055504 -5.867222344160299, -35.81036109789613 -6.186156749015477, -35.62825922997033 -6.734618561215485 M-35.62825922997033 -6.734618561215485 C-35.5323931845933 -6.971409546740647, -35.436527139216274 -7.208200532265808, -35.15917114880834 -7.893275190886676 M-35.62825922997033 -6.734618561215485 C-35.49770713627074 -7.05708475670649, -35.367155042571156 -7.379550952197494, -35.15917114880834 -7.893275190886676 M-35.15917114880834 -7.893275190886676 C-34.97980783385671 -8.26572695214388, -34.80044451890508 -8.638178713401084, -34.616811474273504 -9.019496659696282 M-35.15917114880834 -7.893275190886676 C-35.03287907126714 -8.155523392118551, -34.906586993725945 -8.417771593350427, -34.616811474273504 -9.019496659696282 M-34.616811474273504 -9.019496659696282 C-34.470376940924744 -9.279506001761407, -34.32394240757599 -9.53951534382653, -34.00340887860425 -10.108655082055243 M-34.616811474273504 -9.019496659696282 C-34.41293467154054 -9.381500567713582, -34.20905786880757 -9.743504475730884, -34.00340887860425 -10.108655082055243 M-34.00340887860425 -10.108655082055243 C-33.8533033754051 -10.33925744394054, -33.70319787220594 -10.569859805825837, -33.32148396464064 -11.156274872382308 M-34.00340887860425 -10.108655082055243 C-33.770844826400634 -10.465935918432137, -33.53828077419703 -10.823216754809032, -33.32148396464064 -11.156274872382308 M-33.32148396464064 -11.156274872382308 C-33.13366294053471 -11.407937933836957, -32.94584191642878 -11.659600995291605, -32.57383890812659 -12.158051136245302 M-33.32148396464064 -11.156274872382308 C-33.083656938773665 -11.474941420556284, -32.84582991290668 -11.793607968730258, -32.57383890812659 -12.158051136245302 M-32.57383890812659 -12.158051136245302 C-32.396417932340704 -12.366459909942922, -32.21899695655481 -12.574868683640542, -31.763545942968662 -13.10986736009567 M-32.57383890812659 -12.158051136245302 C-32.410499724439475 -12.349918635667029, -32.24716054075237 -12.541786135088756, -31.763545942968662 -13.10986736009567 M-31.763545942968662 -13.10986736009567 C-31.439582593845568 -13.44438611595088, -31.115619244722474 -13.778904871806091, -30.893934736767996 -14.007812326905677 M-31.763545942968662 -13.10986736009567 C-31.50635508430615 -13.37543803742691, -31.249164225643636 -13.641008714758149, -30.893934736767996 -14.007812326905677 M-30.893934736767996 -14.007812326905677 C-30.688774318509854 -14.194133590520511, -30.483613900251715 -14.380454854135348, -29.968578708501887 -14.848196188198107 M-30.893934736767996 -14.007812326905677 C-30.708127398159323 -14.176557635637293, -30.52232005955065 -14.345302944368907, -29.968578708501887 -14.848196188198107 M-29.968578708501887 -14.848196188198107 C-29.748695233075907 -15.023547408505307, -29.528811757649926 -15.198898628812506, -28.99128034457872 -15.627565626425149 M-29.968578708501887 -14.848196188198107 C-29.759413035553997 -15.01500024624173, -29.550247362606108 -15.181804304285354, -28.99128034457872 -15.627565626425149 M-28.99128034457872 -15.627565626425149 C-28.626457207453207 -15.882050453944839, -28.26163407032769 -16.13653528146453, -27.96605557360571 -16.342718045390885 M-28.99128034457872 -15.627565626425149 C-28.697284363960968 -15.832644495623212, -28.40328838334322 -16.037723364821275, -27.96605557360571 -16.342718045390885 M-27.96605557360571 -16.342718045390885 C-27.61927166807248 -16.552940486853565, -27.27248776253925 -16.763162928316245, -26.89711726407679 -16.99071473040609 M-27.96605557360571 -16.342718045390885 C-27.713816019795132 -16.495627145235012, -27.461576465984553 -16.64853624507914, -26.89711726407679 -16.99071473040609 M-26.89711726407679 -16.99071473040609 C-26.532674907639976 -17.180844074322707, -26.168232551203165 -17.370973418239323, -25.788857912792388 -17.56889292409717 M-26.89711726407679 -16.99071473040609 C-26.529210615210456 -17.1826513934642, -26.161303966344125 -17.374588056522313, -25.788857912792388 -17.56889292409717 M-25.788857912792388 -17.56889292409717 C-25.512682678772553 -17.69114750775051, -25.236507444752718 -17.813402091403855, -24.645831595147804 -18.07487676824742 M-25.788857912792388 -17.56889292409717 C-25.4320588289114 -17.726837294462513, -25.07525974503041 -17.884781664827855, -24.645831595147804 -18.07487676824742 M-24.645831595147804 -18.07487676824742 C-24.268711639861056 -18.213660397851598, -23.891591684574305 -18.35244402745577, -23.47273525146062 -18.506587066708033 M-24.645831595147804 -18.07487676824742 C-24.32356641031182 -18.193473335253778, -24.001301225475835 -18.31206990226013, -23.47273525146062 -18.506587066708033 M-23.47273525146062 -18.506587066708033 C-23.072555999646838 -18.625358168062604, -22.672376747833056 -18.74412926941718, -22.274389386235413 -18.862249829261067 M-23.47273525146062 -18.506587066708033 C-23.164437671779368 -18.598088170070408, -22.856140092098112 -18.689589273432787, -22.274389386235413 -18.862249829261067 M-22.274389386235413 -18.862249829261067 C-21.837583650187938 -18.96194788809009, -21.400777914140466 -19.061645946919114, -21.055718259676766 -19.140403561325773 M-22.274389386235413 -18.862249829261067 C-21.812808145818472 -18.967602735287144, -21.351226905401532 -19.072955641313225, -21.055718259676766 -19.140403561325773 M-21.055718259676766 -19.140403561325773 C-20.779747026209957 -19.185020450163808, -20.503775792743152 -19.22963733900184, -19.821729652847882 -19.3399052695533 M-21.055718259676766 -19.140403561325773 C-20.690835196544832 -19.19939502526253, -20.325952133412898 -19.25838648919928, -19.821729652847882 -19.3399052695533 M-19.821729652847882 -19.3399052695533 C-19.39592166542597 -19.38098245399086, -18.97011367800406 -19.422059638428426, -18.577494289623903 -19.45993515863156 M-19.821729652847882 -19.3399052695533 C-19.419217011775086 -19.378735179945316, -19.01670437070229 -19.417565090337334, -18.577494289623903 -19.45993515863156 M-18.577494289623903 -19.45993515863156 C-18.10635705889096 -19.475043612608175, -17.635219828158018 -19.490152066584795, -17.328125000000007 -19.5 M-18.577494289623903 -19.45993515863156 C-18.2376739257743 -19.470832536280003, -17.897853561924695 -19.481729913928447, -17.328125000000007 -19.5 M-17.328125000000007 -19.5 C-17.328125000000004 -19.5, -17.328125000000004 -19.5, -17.328125 -19.5 M-17.328125000000007 -19.5 C-17.328125000000004 -19.5, -17.328125000000004 -19.5, -17.328125 -19.5" stroke="#16213e" stroke-width="1.3" fill="none" stroke-dasharray="0 0" style=""/></g><g class="label" style="" transform="translate(-24.453125, -12)"><rect/><foreignObject width="48.90625" height="24"><div xmlns="http://www.w3.org/1999/xhtml" style="display: table-cell; white-space: nowrap; line-height: 1.5; max-width: 200px; text-align: center;"><span class="nodeLabel"><p>Clients</p></span></div></foreignObject></g></g><g class="node default hostStyle" id="flowchart-MARS_HOST-1" transform="translate(575.8046875, 211)"><rect class="basic label-container" style="fill:#16213e !important;stroke:#e94560 !important;stroke-width:2px !important" x="-96.2578125" y="-39" width="192.515625" height="78"/><g class="label" style="color:#eee !important" transform="translate(-66.2578125, -24)"><rect/><foreignObject width="132.515625" height="48"><div style="color: rgb(238, 238, 238) !important; display: table-cell; white-space: nowrap; line-height: 1.5; max-width: 200px; text-align: center;" xmlns="http://www.w3.org/1999/xhtml"><span style="color:#eee !important" class="nodeLabel"><p>Bare Metal Host<br />Hetzner Dedicated</p></span></div></foreignObject></g></g><g class="node default masterStyle" id="flowchart-M1-2" transform="translate(221.36999130249023, 449)"><rect class="basic label-container" style="fill:#0f3460 !important;stroke:#e94560 !important;stroke-width:2px !important" x="-82.4609375" y="-51" width="164.921875" height="102"/><g class="label" style="color:#eee !important" transform="translate(-52.4609375, -36)"><rect/><foreignObject width="104.921875" height="72"><div style="color: rgb(238, 238, 238) !important; display: table-cell; white-space: nowrap; line-height: 1.5; max-width: 200px; text-align: center;" xmlns="http://www.w3.org/1999/xhtml"><span style="color:#eee !important" class="nodeLabel"><p>k8s-master-1<br />10.10.10.10<br />2 vCPU / 8 GB</p></span></div></foreignObject></g></g><g class="node default workerStyle" id="flowchart-W1-3" transform="translate(440.74499130249023, 449)"><rect class="basic label-container" style="fill:#533483 !important;stroke:#e94560 !important;stroke-width:2px !important" x="-86.9140625" y="-51" width="173.828125" height="102"/><g class="label" style="color:#eee !important" transform="translate(-56.9140625, -36)"><rect/><foreignObject width="113.828125" height="72"><div style="color: rgb(238, 238, 238) !important; display: table-cell; white-space: nowrap; line-height: 1.5; max-width: 200px; text-align: center;" xmlns="http://www.w3.org/1999/xhtml"><span style="color:#eee !important" class="nodeLabel"><p>k8s-worker-1<br />10.10.10.11<br />4 vCPU / 32 GB</p></span></div></foreignObject></g></g><g class="node default hostStyle" id="flowchart-ZEUS_HOST-8" transform="translate(1157.2449913024902, 449)"><rect class="basic label-container" style="fill:#16213e !important;stroke:#e94560 !important;stroke-width:2px !important" x="-96.2578125" y="-39" width="192.515625" height="78"/><g class="label" style="color:#eee !important" transform="translate(-66.2578125, -24)"><rect/><foreignObject width="132.515625" height="48"><div style="color: rgb(238, 238, 238) !important; display: table-cell; white-space: nowrap; line-height: 1.5; max-width: 200px; text-align: center;" xmlns="http://www.w3.org/1999/xhtml"><span style="color:#eee !important" class="nodeLabel"><p>Bare Metal Host<br />Hetzner Dedicated</p></span></div></foreignObject></g></g><g class="node default masterStyle" id="flowchart-M2-9" transform="translate(1083.19140625, 749)"><rect class="basic label-container" style="fill:#0f3460 !important;stroke:#e94560 !important;stroke-width:2px !important" x="-82.4609375" y="-51" width="164.921875" height="102"/><g class="label" style="color:#eee !important" transform="translate(-52.4609375, -36)"><rect/><foreignObject width="104.921875" height="72"><div style="color: rgb(238, 238, 238) !important; display: table-cell; white-space: nowrap; line-height: 1.5; max-width: 200px; text-align: center;" xmlns="http://www.w3.org/1999/xhtml"><span style="color:#eee !important" class="nodeLabel"><p>k8s-master-2<br />10.10.20.10<br />2 vCPU / 8 GB</p></span></div></foreignObject></g></g><g class="node default workerStyle" id="flowchart-W2-10" transform="translate(1307.01171875, 749)"><rect class="basic label-container" style="fill:#533483 !important;stroke:#e94560 !important;stroke-width:2px !important" x="-91.359375" y="-51" width="182.71875" height="102"/><g class="label" style="color:#eee !important" transform="translate(-61.359375, -36)"><rect/><foreignObject width="122.71875" height="72"><div style="color: rgb(238, 238, 238) !important; display: table-cell; white-space: nowrap; line-height: 1.5; max-width: 200px; text-align: center;" xmlns="http://www.w3.org/1999/xhtml"><span style="color:#eee !important" class="nodeLabel"><p>k8s-worker-2<br />10.10.20.11<br />12 vCPU / 96 GB</p></span></div></foreignObject></g></g><g class="node default hostStyle" id="flowchart-JUPITER_HOST-15" transform="translate(604.96484375, 749)"><rect class="basic label-container" style="fill:#16213e !important;stroke:#e94560 !important;stroke-width:2px !important" x="-96.2578125" y="-39" width="192.515625" height="78"/><g class="label" style="color:#eee !important" transform="translate(-66.2578125, -24)"><rect/><foreignObject width="132.515625" height="48"><div style="color: rgb(238, 238, 238) !important; display: table-cell; white-space: nowrap; line-height: 1.5; max-width: 200px; text-align: center;" xmlns="http://www.w3.org/1999/xhtml"><span style="color:#eee !important" class="nodeLabel"><p>Bare Metal Host<br />Hetzner Dedicated</p></span></div></foreignObject></g></g><g class="node default masterStyle" id="flowchart-M3-16" transform="translate(381.14453125, 976)"><rect class="basic label-container" style="fill:#0f3460 !important;stroke:#e94560 !important;stroke-width:2px !important" x="-82.4609375" y="-51" width="164.921875" height="102"/><g class="label" style="color:#eee !important" transform="translate(-52.4609375, -36)"><rect/><foreignObject width="104.921875" height="72"><div style="color: rgb(238, 238, 238) !important; display: table-cell; white-space: nowrap; line-height: 1.5; max-width: 200px; text-align: center;" xmlns="http://www.w3.org/1999/xhtml"><span style="color:#eee !important" class="nodeLabel"><p>k8s-master-3<br />10.10.30.10<br />2 vCPU / 8 GB</p></span></div></foreignObject></g></g><g class="node default workerStyle" id="flowchart-W3-17" transform="translate(604.96484375, 976)"><rect class="basic label-container" style="fill:#533483 !important;stroke:#e94560 !important;stroke-width:2px !important" x="-91.359375" y="-51" width="182.71875" height="102"/><g class="label" style="color:#eee !important" transform="translate(-61.359375, -36)"><rect/><foreignObject width="122.71875" height="72"><div style="color: rgb(238, 238, 238) !important; display: table-cell; white-space: nowrap; line-height: 1.5; max-width: 200px; text-align: center;" xmlns="http://www.w3.org/1999/xhtml"><span style="color:#eee !important" class="nodeLabel"><p>k8s-worker-3<br />10.10.30.11<br />12 vCPU / 96 GB</p></span></div></foreignObject></g></g></g></g></g></svg>