<svg id="my-svg" width="100%" xmlns="http://www.w3.org/2000/svg" xmlns:xlink="http://www.w3.org/1999/xlink" class="flowchart" style="max-width: 1206.89px; background-color: transparent;" viewBox="0 0 1206.890625 834" role="graphics-document document" aria-roledescription="flowchart-v2"><style>#my-svg{font-family:"trebuchet ms",verdana,arial,sans-serif;font-size:16px;fill:#eee;}@keyframes edge-animation-frame{from{stroke-dashoffset:0;}}@keyframes dash{to{stroke-dashoffset:0;}}#my-svg .edge-animation-slow{stroke-dasharray:9,5!important;stroke-dashoffset:900;animation:dash 50s linear infinite;stroke-linecap:round;}#my-svg .edge-animation-fast{stroke-dasharray:9,5!important;stroke-dashoffset:900;animation:dash 20s linear infinite;stroke-linecap:round;}#my-svg .error-icon{fill:hsl(60, 27.7777777778%, 19.1176470588%);}#my-svg .error-text{fill:rgb(192.7083333334, 192.7083333334, 219.7916666667);stroke:rgb(192.7083333334, 192.7083333334, 219.7916666667);}#my-svg .edge-thickness-normal{stroke-width:1px;}#my-svg .edge-thickness-thick{stroke-width:3.5px;}#my-svg .edge-pattern-solid{stroke-dasharray:0;}#my-svg .edge-thickness-invisible{stroke-width:0;fill:none;}#my-svg .edge-pattern-dashed{stroke-dasharray:3;}#my-svg .edge-pattern-dotted{stroke-dasharray:2;}#my-svg .marker{fill:#e94560;stroke:#e94560;}#my-svg .marker.cross{stroke:#e94560;}#my-svg svg{font-family:"trebuchet ms",verdana,arial,sans-serif;font-size:16px;}#my-svg p{margin:0;}#my-svg .label{font-family:"trebuchet ms",verdana,arial,sans-serif;color:#eee;}#my-svg .cluster-label text{fill:rgb(192.7083333334, 192.7083333334, 219.7916666667);}#my-svg .cluster-label span{color:rgb(192.7083333334, 192.7083333334, 219.7916666667);}#my-svg .cluster-label span p{background-color:transparent;}#my-svg .label text,#my-svg span{fill:#eee;color:#eee;}#my-svg .node rect,#my-svg .node circle,#my-svg .node ellipse,#my-svg .node polygon,#my-svg .node path{fill:#1a1a2e;stroke:hsl(240, 0%, 4.1176470588%);stroke-width:1px;}#my-svg .rough-node .label text,#my-svg .node .label text,#my-svg .image-shape .label,#my-svg .icon-shape .label{text-anchor:middle;}#my-svg .node .katex path{fill:#000;stroke:#000;stroke-width:1px;}#my-svg .rough-node .label,#my-svg .node .label,#my-svg .image-shape .label,#my-svg .icon-shape .label{text-align:center;}#my-svg .node.clickable{cursor:pointer;}#my-svg .root .anchor path{fill:#e94560!important;stroke-width:0;stroke:#e94560;}#my-svg .arrowheadPath{fill:#0b0b0b;}#my-svg .edgePath .path{stroke:#e94560;stroke-width:2.0px;}#my-svg .flowchart-link{stroke:#e94560;fill:none;}#my-svg .edgeLabel{background-color:#0f3460;text-align:center;}#my-svg .edgeLabel p{background-color:#0f3460;}#my-svg .edgeLabel rect{opacity:0.5;background-color:#0f3460;fill:#0f3460;}#my-svg .labelBkg{background-color:rgba(15, 52, 96, 0.5);}#my-svg .cluster rect{fill:hsl(60, 27.7777777778%, 19.1176470588%);stroke:hsl(60, 0%, 9.1176470588%);stroke-width:1px;}#my-svg .cluster text{fill:rgb(192.7083333334, 192.7083333334, 219.7916666667);}#my-svg .cluster span{color:rgb(192.7083333334, 192.7083333334, 219.7916666667);}#my-svg div.mermaidTooltip{position:absolute;text-align:center;max-width:200px;padding:2px;font-family:"trebuchet ms",verdana,arial,sans-serif;font-size:12px;background:hsl(60, 27.7777777778%, 19.1176470588%);border:1px solid hsl(60, 0%, 9.1176470588%);border-radius:2px;pointer-events:none;z-index:100;}#my-svg .flowchartTitleText{text-anchor:middle;font-size:18px;fill:#eee;}#my-svg rect.text{fill:none;stroke-width:0;}#my-svg .icon-shape,#my-svg .image-shape{background-color:#0f3460;text-align:center;}#my-svg .icon-shape p,#my-svg .image-shape p{background-color:#0f3460;padding:2px;}#my-svg .icon-shape rect,#my-svg .image-shape rect{opacity:0.5;background-color:#0f3460;fill:#0f3460;}#my-svg .label-icon{display:inline-block;height:1em;overflow:visible;vertical-align:-0.125em;}#my-svg .node .label-icon path{fill:currentColor;stroke:revert;stroke-width:revert;}#my-svg :root{--mermaid-font-family:"trebuchet ms",verdana,arial,sans-serif;}#my-svg .clientStyle&gt;*{fill:#e94560!important;stroke:#1a1a2e!important;stroke-width:2px!important;color:#fff!important;}#my-svg .clientStyle span{fill:#e94560!important;stroke:#1a1a2e!important;stroke-width:2px!important;color:#fff!important;}#my-svg .clientStyle tspan{fill:#fff!important;}#my-svg .ifaceStyle&gt;*{fill:#16213e!important;stroke:#e94560!important;stroke-width:2px!important;color:#eee!important;}#my-svg .ifaceStyle span{fill:#16213e!important;stroke:#e94560!important;stroke-width:2px!important;color:#eee!important;}#my-svg .ifaceStyle tspan{fill:#eee!important;}#my-svg .iptStyle&gt;*{fill:#0f3460!important;stroke:#e94560!important;stroke-width:1px!important;color:#eee!important;}#my-svg .iptStyle span{fill:#0f3460!important;stroke:#e94560!important;stroke-width:1px!important;color:#eee!important;}#my-svg .iptStyle tspan{fill:#eee!important;}#my-svg .workerStyle&gt;*{fill:#533483!important;stroke:#e94560!important;stroke-width:1px!important;color:#eee!important;}#my-svg .workerStyle span{fill:#533483!important;stroke:#e94560!important;stroke-width:1px!important;color:#eee!important;}#my-svg .workerStyle tspan{fill:#eee!important;}#my-svg .coturnStyle&gt;*{fill:#1a1a2e!important;stroke:#e94560!important;stroke-width:2px!important;color:#eee!important;}#my-svg .coturnStyle span{fill:#1a1a2e!important;stroke:#e94560!important;stroke-width:2px!important;color:#eee!important;}#my-svg .coturnStyle tspan{fill:#eee!important;}#my-svg .sniStyle&gt;*{fill:#0f3460!important;stroke:#533483!important;stroke-width:1px!important;color:#eee!important;}#my-svg .sniStyle span{fill:#0f3460!important;stroke:#533483!important;stroke-width:1px!important;color:#eee!important;}#my-svg .sniStyle tspan{fill:#eee!important;}</style><g><marker id="my-svg_flowchart-v2-pointEnd" class="marker flowchart-v2" viewBox="0 0 10 10" refX="5" refY="5" markerUnits="userSpaceOnUse" markerWidth="8" markerHeight="8" orient="auto"><path d="M 0 0 L 10 5 L 0 10 z" class="arrowMarkerPath" style="stroke-width: 1; stroke-dasharray: 1, 0;"/></marker><marker id="my-svg_flowchart-v2-pointStart" class="marker flowchart-v2" viewBox="0 0 10 10" refX="4.5" refY="5" markerUnits="userSpaceOnUse" markerWidth="8" markerHeight="8" orient="auto"><path d="M 0 5 L 10 10 L 10 0 z" class="arrowMarkerPath" style="stroke-width: 1; stroke-dasharray: 1, 0;"/></marker><marker id="my-svg_flowchart-v2-circleEnd" class="marker flowchart-v2" viewBox="0 0 10 10" refX="11" refY="5" markerUnits="userSpaceOnUse" markerWidth="11" markerHeight="11" orient="auto"><circle cx="5" cy="5" r="5" class="arrowMarkerPath" style="stroke-width: 1; stroke-dasharray: 1, 0;"/></marker><marker id="my-svg_flowchart-v2-circleStart" class="marker flowchart-v2" viewBox="0 0 10 10" refX="-1" refY="5" markerUnits="userSpaceOnUse" markerWidth="11" markerHeight="11" orient="auto"><circle cx="5" cy="5" r="5" class="arrowMarkerPath" style="stroke-width: 1; stroke-dasharray: 1, 0;"/></marker><marker id="my-svg_flowchart-v2-crossEnd" class="marker cross flowchart-v2" viewBox="0 0 11 11" refX="12" refY="5.2" markerUnits="userSpaceOnUse" markerWidth="11" markerHeight="11" orient="auto"><path d="M 1,1 l 9,9 M 10,1 l -9,9" class="arrowMarkerPath" style="stroke-width: 2; stroke-dasharray: 1, 0;"/></marker><marker id="my-svg_flowchart-v2-crossStart" class="marker cross flowchart-v2" viewBox="0 0 11 11" refX="-1" refY="5.2" markerUnits="userSpaceOnUse" markerWidth="11" markerHeight="11" orient="auto"><path d="M 1,1 l 9,9 M 10,1 l -9,9" class="arrowMarkerPath" style="stroke-width: 2; stroke-dasharray: 1, 0;"/></marker><g class="root"><g class="clusters"><g class="cluster" id="SNI" data-look="classic"><rect style="" x="8" y="145" width="254.5625" height="480"/><g class="cluster-label" transform="translate(57.484375, 145)"><foreignObject width="155.59375" height="24"><div xmlns="http://www.w3.org/1999/xhtml" style="display: table-cell; white-space: nowrap; line-height: 1.5; max-width: 200px; text-align: center;"><span class="nodeLabel"><p>SNI Proxy - mars only</p></span></div></foreignObject></g></g><g class="cluster" id="JUPITER_FLOW" data-look="classic"><rect style="" x="282.5625" y="145" width="292.109375" height="681"/><g class="cluster-label" transform="translate(357.453125, 145)"><foreignObject width="142.328125" height="24"><div xmlns="http://www.w3.org/1999/xhtml" style="display: table-cell; white-space: nowrap; line-height: 1.5; max-width: 200px; text-align: center;"><span class="nodeLabel"><p>jupiter - 5.9.157.221</p></span></div></foreignObject></g></g><g class="cluster" id="ZEUS_FLOW" data-look="classic"><rect style="" x="594.671875" y="145" width="292.109375" height="681"/><g class="cluster-label" transform="translate(674.453125, 145)"><foreignObject width="132.546875" height="24"><div xmlns="http://www.w3.org/1999/xhtml" style="display: table-cell; white-space: nowrap; line-height: 1.5; max-width: 200px; text-align: center;"><span class="nodeLabel"><p>zeus - 5.9.157.226</p></span></div></foreignObject></g></g><g class="cluster" id="MARS_FLOW" data-look="classic"><rect style="" x="906.78125" y="145" width="292.109375" height="681"/><g class="cluster-label" transform="translate(976.7890625, 145)"><foreignObject width="152.09375" height="24"><div xmlns="http://www.w3.org/1999/xhtml" style="display: table-cell; white-space: nowrap; line-height: 1.5; max-width: 200px; text-align: center;"><span class="nodeLabel"><p>mars - 94.130.141.98</p></span></div></foreignObject></g></g></g><g class="edgePaths"><path d="M1052.836,248L1052.836,256.167C1052.836,264.333,1052.836,280.667,1052.836,296.333C1052.836,312,1052.836,327,1052.836,334.5L1052.836,342" id="L_MARS_IFACE_MARS_IPT_0" class="edge-thickness-normal edge-pattern-solid edge-thickness-normal edge-pattern-solid flowchart-link" style=";" data-edge="true" data-et="edge" data-id="L_MARS_IFACE_MARS_IPT_0" data-points="W3sieCI6MTA1Mi44MzU5Mzc1LCJ5IjoyNDh9LHsieCI6MTA1Mi44MzU5Mzc1LCJ5IjoyOTd9LHsieCI6MTA1Mi44MzU5Mzc1LCJ5IjozNDZ9XQ==" marker-end="url(#my-svg_flowchart-v2-pointEnd)"/><path d="M1052.836,424L1052.836,432.167C1052.836,440.333,1052.836,456.667,1052.836,472.333C1052.836,488,1052.836,503,1052.836,510.5L1052.836,518" id="L_MARS_IPT_MARS_W_0" class="edge-thickness-normal edge-pattern-solid edge-thickness-normal edge-pattern-solid flowchart-link" style=";" data-edge="true" data-et="edge" data-id="L_MARS_IPT_MARS_W_0" data-points="W3sieCI6MTA1Mi44MzU5Mzc1LCJ5Ijo0MjR9LHsieCI6MTA1Mi44MzU5Mzc1LCJ5Ijo0NzN9LHsieCI6MTA1Mi44MzU5Mzc1LCJ5Ijo1MjJ9XQ==" marker-end="url(#my-svg_flowchart-v2-pointEnd)"/><path d="M1052.836,600L1052.836,604.167C1052.836,608.333,1052.836,616.667,1052.836,625C1052.836,633.333,1052.836,641.667,1052.836,650C1052.836,658.333,1052.836,666.667,1052.836,670.833L1052.836,675" id="L_MARS_W_MARS_COTURN_0" class="edge-thickness-normal edge-pattern-solid edge-thickness-normal edge-pattern-solid flowchart-link" style=";" data-edge="true" data-et="edge" data-id="L_MARS_W_MARS_COTURN_0" data-points="W3sieCI6MTA1Mi44MzU5Mzc1LCJ5Ijo2MDB9LHsieCI6MTA1Mi44MzU5Mzc1LCJ5Ijo2MjV9LHsieCI6MTA1Mi44MzU5Mzc1LCJ5Ijo2NTB9LHsieCI6MTA1Mi44MzU5Mzc1LCJ5Ijo2NzV9XQ=="/><path d="M740.727,248L740.727,256.167C740.727,264.333,740.727,280.667,740.727,296.333C740.727,312,740.727,327,740.727,334.5L740.727,342" id="L_ZEUS_IFACE_ZEUS_IPT_0" class="edge-thickness-normal edge-pattern-solid edge-thickness-normal edge-pattern-solid flowchart-link" style=";" data-edge="true" data-et="edge" data-id="L_ZEUS_IFACE_ZEUS_IPT_0" data-points="W3sieCI6NzQwLjcyNjU2MjUsInkiOjI0OH0seyJ4Ijo3NDAuNzI2NTYyNSwieSI6Mjk3fSx7IngiOjc0MC43MjY1NjI1LCJ5IjozNDZ9XQ==" marker-end="url(#my-svg_flowchart-v2-pointEnd)"/><path d="M740.727,424L740.727,432.167C740.727,440.333,740.727,456.667,740.727,472.333C740.727,488,740.727,503,740.727,510.5L740.727,518" id="L_ZEUS_IPT_ZEUS_W_0" class="edge-thickness-normal edge-pattern-solid edge-thickness-normal edge-pattern-solid flowchart-link" style=";" data-edge="true" data-et="edge" data-id="L_ZEUS_IPT_ZEUS_W_0" data-points="W3sieCI6NzQwLjcyNjU2MjUsInkiOjQyNH0seyJ4Ijo3NDAuNzI2NTYyNSwieSI6NDczfSx7IngiOjc0MC43MjY1NjI1LCJ5Ijo1MjJ9XQ==" marker-end="url(#my-svg_flowchart-v2-pointEnd)"/><path d="M740.727,600L740.727,604.167C740.727,608.333,740.727,616.667,740.727,625C740.727,633.333,740.727,641.667,740.727,650C740.727,658.333,740.727,666.667,740.727,670.833L740.727,675" id="L_ZEUS_W_ZEUS_COTURN_0" class="edge-thickness-normal edge-pattern-solid edge-thickness-normal edge-pattern-solid flowchart-link" style=";" data-edge="true" data-et="edge" data-id="L_ZEUS_W_ZEUS_COTURN_0" data-points="W3sieCI6NzQwLjcyNjU2MjUsInkiOjYwMH0seyJ4Ijo3NDAuNzI2NTYyNSwieSI6NjI1fSx7IngiOjc0MC43MjY1NjI1LCJ5Ijo2NTB9LHsieCI6NzQwLjcyNjU2MjUsInkiOjY3NX1d"/><path d="M428.617,248L428.617,256.167C428.617,264.333,428.617,280.667,428.617,296.333C428.617,312,428.617,327,428.617,334.5L428.617,342" id="L_JUPITER_IFACE_JUPITER_IPT_0" class="edge-thickness-normal edge-pattern-solid edge-thickness-normal edge-pattern-solid flowchart-link" style=";" data-edge="true" data-et="edge" data-id="L_JUPITER_IFACE_JUPITER_IPT_0" data-points="W3sieCI6NDI4LjYxNzE4NzUsInkiOjI0OH0seyJ4Ijo0MjguNjE3MTg3NSwieSI6Mjk3fSx7IngiOjQyOC42MTcxODc1LCJ5IjozNDZ9XQ==" marker-end="url(#my-svg_flowchart-v2-pointEnd)"/><path d="M428.617,424L428.617,432.167C428.617,440.333,428.617,456.667,428.617,472.333C428.617,488,428.617,503,428.617,510.5L428.617,518" id="L_JUPITER_IPT_JUPITER_W_0" class="edge-thickness-normal edge-pattern-solid edge-thickness-normal edge-pattern-solid flowchart-link" style=";" data-edge="true" data-et="edge" data-id="L_JUPITER_IPT_JUPITER_W_0" data-points="W3sieCI6NDI4LjYxNzE4NzUsInkiOjQyNH0seyJ4Ijo0MjguNjE3MTg3NSwieSI6NDczfSx7IngiOjQyOC42MTcxODc1LCJ5Ijo1MjJ9XQ==" marker-end="url(#my-svg_flowchart-v2-pointEnd)"/><path d="M428.617,600L428.617,604.167C428.617,608.333,428.617,616.667,428.617,625C428.617,633.333,428.617,641.667,428.617,650C428.617,658.333,428.617,666.667,428.617,670.833L428.617,675" id="L_JUPITER_W_JUPITER_COTURN_0" class="edge-thickness-normal edge-pattern-solid edge-thickness-normal edge-pattern-solid flowchart-link" style=";" data-edge="true" data-et="edge" data-id="L_JUPITER_W_JUPITER_COTURN_0" data-points="W3sieCI6NDI4LjYxNzE4NzUsInkiOjYwMH0seyJ4Ijo0MjguNjE3MTg3NSwieSI6NjI1fSx7IngiOjQyOC42MTcxODc1LCJ5Ijo2NTB9LHsieCI6NDI4LjYxNzE4NzUsInkiOjY3NX1d"/><path d="M135.281,248L135.281,256.167C135.281,264.333,135.281,280.667,135.281,296.333C135.281,312,135.281,327,135.281,334.5L135.281,342" id="L_SNI_IPTABLES_SNI_PROXY_0" class="edge-thickness-normal edge-pattern-solid edge-thickness-normal edge-pattern-solid flowchart-link" style=";" data-edge="true" data-et="edge" data-id="L_SNI_IPTABLES_SNI_PROXY_0" data-points="W3sieCI6MTM1LjI4MTI1LCJ5IjoyNDh9LHsieCI6MTM1LjI4MTI1LCJ5IjoyOTd9LHsieCI6MTM1LjI4MTI1LCJ5IjozNDZ9XQ==" marker-end="url(#my-svg_flowchart-v2-pointEnd)"/><path d="M135.281,424L135.281,432.167C135.281,440.333,135.281,456.667,135.281,472.333C135.281,488,135.281,503,135.281,510.5L135.281,518" id="L_SNI_PROXY_SNI_BACKEND_0" class="edge-thickness-normal edge-pattern-solid edge-thickness-normal edge-pattern-solid flowchart-link" style=";" data-edge="true" data-et="edge" data-id="L_SNI_PROXY_SNI_BACKEND_0" data-points="W3sieCI6MTM1LjI4MTI1LCJ5Ijo0MjR9LHsieCI6MTM1LjI4MTI1LCJ5Ijo0NzN9LHsieCI6MTM1LjI4MTI1LCJ5Ijo1MjJ9XQ==" marker-end="url(#my-svg_flowchart-v2-pointEnd)"/><path d="M650.327,37.533L717.412,47.278C784.497,57.022,918.666,76.511,985.751,94.422C1052.836,112.333,1052.836,128.667,1052.836,140.333C1052.836,152,1052.836,159,1052.836,162.5L1052.836,166" id="L_CLIENT_MARS_IFACE_0" class="edge-thickness-normal edge-pattern-solid edge-thickness-normal edge-pattern-solid flowchart-link" style=";" data-edge="true" data-et="edge" data-id="L_CLIENT_MARS_IFACE_0" data-points="W3sieCI6NjUwLjMyNzQzMjcxNzQ0NTUsInkiOjM3LjUzMzMxNTQ3ODc5MTE5NX0seyJ4IjoxMDUyLjgzNTkzNzUsInkiOjk2fSx7IngiOjEwNTIuODM1OTM3NSwieSI6MTQ1fSx7IngiOjEwNTIuODM1OTM3NSwieSI6MTcwfV0=" marker-end="url(#my-svg_flowchart-v2-pointEnd)"/><path d="M629.596,47.5L648.118,55.583C666.64,63.667,703.683,79.833,722.205,96.083C740.727,112.333,740.727,128.667,740.727,140.333C740.727,152,740.727,159,740.727,162.5L740.727,166" id="L_CLIENT_ZEUS_IFACE_0" class="edge-thickness-normal edge-pattern-solid edge-thickness-normal edge-pattern-solid flowchart-link" style=";" data-edge="true" data-et="edge" data-id="L_CLIENT_ZEUS_IFACE_0" data-points="W3sieCI6NjI5LjU5NjIwMjA5ODU0MDIsInkiOjQ3LjV9LHsieCI6NzQwLjcyNjU2MjUsInkiOjk2fSx7IngiOjc0MC43MjY1NjI1LCJ5IjoxNDV9LHsieCI6NzQwLjcyNjU2MjUsInkiOjE3MH1d" marker-end="url(#my-svg_flowchart-v2-pointEnd)"/><path d="M540.748,47.5L522.059,55.583C503.371,63.667,465.994,79.833,447.306,96.083C428.617,112.333,428.617,128.667,428.617,140.333C428.617,152,428.617,159,428.617,162.5L428.617,166" id="L_CLIENT_JUPITER_IFACE_0" class="edge-thickness-normal edge-pattern-solid edge-thickness-normal edge-pattern-solid flowchart-link" style=";" data-edge="true" data-et="edge" data-id="L_CLIENT_JUPITER_IFACE_0" data-points="W3sieCI6NTQwLjc0NzU0NzkwMTQ1OTgsInkiOjQ3LjV9LHsieCI6NDI4LjYxNzE4NzUsInkiOjk2fSx7IngiOjQyOC42MTcxODc1LCJ5IjoxNDV9LHsieCI6NDI4LjYxNzE4NzUsInkiOjE3MH1d" marker-end="url(#my-svg_flowchart-v2-pointEnd)"/><path d="M520.223,37.9L456.066,47.583C391.909,57.267,263.595,76.633,199.438,94.483C135.281,112.333,135.281,128.667,135.281,140.333C135.281,152,135.281,159,135.281,162.5L135.281,166" id="L_CLIENT_SNI_IPTABLES_0" class="edge-thickness-normal edge-pattern-solid edge-thickness-normal edge-pattern-solid flowchart-link" style=";" data-edge="true" data-et="edge" data-id="L_CLIENT_SNI_IPTABLES_0" data-points="W3sieCI6NTIwLjIyMjg3NjUxNjc2MSwieSI6MzcuOTAwMDg3MjQ4Mzc1MjM2fSx7IngiOjEzNS4yODEyNSwieSI6OTZ9LHsieCI6MTM1LjI4MTI1LCJ5IjoxNDV9LHsieCI6MTM1LjI4MTI1LCJ5IjoxNzB9XQ==" marker-end="url(#my-svg_flowchart-v2-pointEnd)"/></g><g class="edgeLabels"><g class="edgeLabel" transform="translate(1052.8359375, 297)"><g class="label" data-id="L_MARS_IFACE_MARS_IPT_0" transform="translate(-49.3828125, -24)"><foreignObject width="98.765625" height="48"><div xmlns="http://www.w3.org/1999/xhtml" class="labelBkg" style="display: table-cell; white-space: nowrap; line-height: 1.5; max-width: 200px; text-align: center;"><span class="edgeLabel"><p>:3478, :5349<br />:10000-13000</p></span></div></foreignObject></g></g><g class="edgeLabel" transform="translate(1052.8359375, 473)"><g class="label" data-id="L_MARS_IPT_MARS_W_0" transform="translate(-42.265625, -24)"><foreignObject width="84.53125" height="48"><div xmlns="http://www.w3.org/1999/xhtml" class="labelBkg" style="display: table-cell; white-space: nowrap; line-height: 1.5; max-width: 200px; text-align: center;"><span class="edgeLabel"><p>DNAT to<br />10.10.10.11</p></span></div></foreignObject></g></g><g class="edgeLabel"><g class="label" data-id="L_MARS_W_MARS_COTURN_0" transform="translate(0, 0)"><foreignObject width="0" height="0"><div xmlns="http://www.w3.org/1999/xhtml" class="labelBkg" style="display: table-cell; white-space: nowrap; line-height: 1.5; max-width: 200px; text-align: center;"><span class="edgeLabel"></span></div></foreignObject></g></g><g class="edgeLabel" transform="translate(740.7265625, 297)"><g class="label" data-id="L_ZEUS_IFACE_ZEUS_IPT_0" transform="translate(-49.3828125, -24)"><foreignObject width="98.765625" height="48"><div xmlns="http://www.w3.org/1999/xhtml" class="labelBkg" style="display: table-cell; white-space: nowrap; line-height: 1.5; max-width: 200px; text-align: center;"><span class="edgeLabel"><p>:3478, :5349<br />:10000-13000</p></span></div></foreignObject></g></g><g class="edgeLabel" transform="translate(740.7265625, 473)"><g class="label" data-id="L_ZEUS_IPT_ZEUS_W_0" transform="translate(-42.265625, -24)"><foreignObject width="84.53125" height="48"><div xmlns="http://www.w3.org/1999/xhtml" class="labelBkg" style="display: table-cell; white-space: nowrap; line-height: 1.5; max-width: 200px; text-align: center;"><span class="edgeLabel"><p>DNAT to<br />10.10.20.11</p></span></div></foreignObject></g></g><g class="edgeLabel"><g class="label" data-id="L_ZEUS_W_ZEUS_COTURN_0" transform="translate(0, 0)"><foreignObject width="0" height="0"><div xmlns="http://www.w3.org/1999/xhtml" class="labelBkg" style="display: table-cell; white-space: nowrap; line-height: 1.5; max-width: 200px; text-align: center;"><span class="edgeLabel"></span></div></foreignObject></g></g><g class="edgeLabel" transform="translate(428.6171875, 297)"><g class="label" data-id="L_JUPITER_IFACE_JUPITER_IPT_0" transform="translate(-49.3828125, -24)"><foreignObject width="98.765625" height="48"><div xmlns="http://www.w3.org/1999/xhtml" class="labelBkg" style="display: table-cell; white-space: nowrap; line-height: 1.5; max-width: 200px; text-align: center;"><span class="edgeLabel"><p>:3478, :5349<br />:10000-13000</p></span></div></foreignObject></g></g><g class="edgeLabel" transform="translate(428.6171875, 473)"><g class="label" data-id="L_JUPITER_IPT_JUPITER_W_0" transform="translate(-42.265625, -24)"><foreignObject width="84.53125" height="48"><div xmlns="http://www.w3.org/1999/xhtml" class="labelBkg" style="display: table-cell; white-space: nowrap; line-height: 1.5; max-width: 200px; text-align: center;"><span class="edgeLabel"><p>DNAT to<br />10.10.30.11</p></span></div></foreignObject></g></g><g class="edgeLabel"><g class="label" data-id="L_JUPITER_W_JUPITER_COTURN_0" transform="translate(0, 0)"><foreignObject width="0" height="0"><div xmlns="http://www.w3.org/1999/xhtml" class="labelBkg" style="display: table-cell; white-space: nowrap; line-height: 1.5; max-width: 200px; text-align: center;"><span class="edgeLabel"></span></div></foreignObject></g></g><g class="edgeLabel"><g class="label" data-id="L_SNI_IPTABLES_SNI_PROXY_0" transform="translate(0, 0)"><foreignObject width="0" height="0"><div xmlns="http://www.w3.org/1999/xhtml" class="labelBkg" style="display: table-cell; white-space: nowrap; line-height: 1.5; max-width: 200px; text-align: center;"><span class="edgeLabel"></span></div></foreignObject></g></g><g class="edgeLabel" transform="translate(135.28125, 473)"><g class="label" data-id="L_SNI_PROXY_SNI_BACKEND_0" transform="translate(-60.9296875, -12)"><foreignObject width="121.859375" height="24"><div xmlns="http://www.w3.org/1999/xhtml" class="labelBkg" style="display: table-cell; white-space: nowrap; line-height: 1.5; max-width: 200px; text-align: center;"><span class="edgeLabel"><p>TLS passthrough</p></span></div></foreignObject></g></g><g class="edgeLabel" transform="translate(1052.8359375, 96)"><g class="label" data-id="L_CLIENT_MARS_IFACE_0" transform="translate(-49.796875, -24)"><foreignObject width="99.59375" height="48"><div xmlns="http://www.w3.org/1999/xhtml" class="labelBkg" style="display: table-cell; white-space: nowrap; line-height: 1.5; max-width: 200px; text-align: center;"><span class="edgeLabel"><p>TURN :3478<br />TURNS :5349</p></span></div></foreignObject></g></g><g class="edgeLabel" transform="translate(740.7265625, 96)"><g class="label" data-id="L_CLIENT_ZEUS_IFACE_0" transform="translate(-49.796875, -24)"><foreignObject width="99.59375" height="48"><div xmlns="http://www.w3.org/1999/xhtml" class="labelBkg" style="display: table-cell; white-space: nowrap; line-height: 1.5; max-width: 200px; text-align: center;"><span class="edgeLabel"><p>TURN :3478<br />TURNS :5349</p></span></div></foreignObject></g></g><g class="edgeLabel" transform="translate(428.6171875, 96)"><g class="label" data-id="L_CLIENT_JUPITER_IFACE_0" transform="translate(-49.796875, -24)"><foreignObject width="99.59375" height="48"><div xmlns="http://www.w3.org/1999/xhtml" class="labelBkg" style="display: table-cell; white-space: nowrap; line-height: 1.5; max-width: 200px; text-align: center;"><span class="edgeLabel"><p>TURN :3478<br />TURNS :5349</p></span></div></foreignObject></g></g><g class="edgeLabel" transform="translate(135.28125, 96)"><g class="label" data-id="L_CLIENT_SNI_IPTABLES_0" transform="translate(-65.359375, -24)"><foreignObject width="130.71875" height="48"><div xmlns="http://www.w3.org/1999/xhtml" class="labelBkg" style="display: table-cell; white-space: nowrap; line-height: 1.5; max-width: 200px; text-align: center;"><span class="edgeLabel"><p>TURNS :443<br />coturn.roomler.live</p></span></div></foreignObject></g></g></g><g class="nodes"><g class="node default clientStyle" id="flowchart-CLIENT-0" transform="translate(584.671875, 27.5)"><g class="basic label-container outer-path"><path d="M-48.15625 -19.5 C-25.70183573007351 -19.5, -3.2474214601470166 -19.5, 48.15625 -19.5 C48.15625 -19.5, 48.15625 -19.5, 48.15625 -19.5 C48.623549072857095 -19.48501462827594, 49.0908481457142 -19.47002925655188, 49.4056192896239 -19.45993515863156 C49.832873421635895 -19.418718466364634, 50.2601275536479 -19.37750177409771, 50.649854652847864 -19.3399052695533 C51.09963699774562 -19.26718794814441, 51.54941934264338 -19.194470626735523, 51.88384325967676 -19.140403561325776 C52.309051946450104 -19.043352453315755, 52.73426063322344 -18.946301345305734, 53.10251438623539 -18.862249829261074 C53.502741828750956 -18.74346442515917, 53.90296927126653 -18.624679021057265, 54.300860251460605 -18.50658706670804 C54.55004787628159 -18.414883717308765, 54.79923550110258 -18.323180367909487, 55.4739565951478 -18.074876768247425 C55.710325876071565 -17.970243099228068, 55.946695156995325 -17.86560943020871, 56.61698291279238 -17.568892924097174 C56.92041698676074 -17.41059156206668, 57.2238510607291 -17.252290200036185, 57.72524226407678 -16.990714730406097 C58.11598203642672 -16.753845984165782, 58.50672180877667 -16.516977237925463, 58.7941805736057 -16.342718045390892 C59.06212378736295 -16.155812458548617, 59.33006700112019 -15.96890687170634, 59.81940534457871 -15.627565626425154 C60.17669705756445 -15.342634993250817, 60.53398877055019 -15.057704360076478, 60.796703708501866 -14.848196188198123 C61.03952250392287 -14.627674582830037, 61.28234129934388 -14.40715297746195, 61.72205973676799 -14.007812326905688 C62.049230760626884 -13.669981383530764, 62.376401784485786 -13.33215044015584, 62.59167094296865 -13.10986736009568 C62.8545176841162 -12.801112621540494, 63.117364425263766 -12.492357882985305, 63.40196390812658 -12.158051136245305 C63.68984542544556 -11.772316129583627, 63.97772694276455 -11.38658112292195, 64.14960896464063 -11.156274872382312 C64.39829896584288 -10.77422024791989, 64.64698896704513 -10.392165623457469, 64.83153387860425 -10.108655082055241 C64.99663689328172 -9.815497961002272, 65.16173990795919 -9.522340839949305, 65.4449364742735 -9.019496659696287 C65.646905630953 -8.600103384403642, 65.8488747876325 -8.180710109110997, 65.98729614880834 -7.893275190886684 C66.08288893715108 -7.657159155519281, 66.17848172549382 -7.421043120151879, 66.45638422997033 -6.734618561215508 C66.5610731541682 -6.419312201446434, 66.66576207836606 -6.104005841677361, 66.85027313421489 -5.548287939305138 C66.96887685100062 -5.09600056402512, 67.08748056778636 -4.643713188745101, 67.16734428754556 -4.339158212148133 C67.23404145327125 -3.996682362597713, 67.30073861899693 -3.654206513047293, 67.40629477658177 -3.1121979531509023 C67.45213182428395 -2.7566948627216954, 67.49796887198613 -2.4011917722924885, 67.56614270250937 -1.872449005199798 C67.59501784788594 -1.4226953083617575, 67.62389299326253 -0.9729416115237169, 67.64623121591342 -0.6250057626472757 C67.64623121591342 -0.29232496758560267, 67.64623121591342 0.04035582747607036, 67.64623121591342 0.625005762647271 C67.61538866169126 1.105403440319097, 67.5845461074691 1.585801117990923, 67.56614270250937 1.8724490051997846 C67.52224930389613 2.2128775371120843, 67.4783559052829 2.553306069024384, 67.40629477658177 3.1121979531508885 C67.32190188271885 3.5455376266926, 67.23750898885592 3.9788773002343114, 67.16734428754556 4.339158212148129 C67.08205278396339 4.664411680878423, 66.99676128038122 4.989665149608719, 66.85027313421489 5.548287939305125 C66.72547789823612 5.92415130665255, 66.60068266225734 6.300014673999975, 66.45638422997033 6.734618561215495 C66.28028879682412 7.169577685660193, 66.10419336367794 7.604536810104891, 65.98729614880834 7.893275190886679 C65.87345632311985 8.129666024710895, 65.75961649743137 8.366056858535112, 65.4449364742735 9.019496659696284 C65.21444261740285 9.428761842604034, 64.9839487605322 9.838027025511785, 64.83153387860425 10.108655082055236 C64.64152394949308 10.400561357980102, 64.45151402038192 10.69246763390497, 64.14960896464065 11.156274872382301 C63.917735668865085 11.466963964629748, 63.68586237308952 11.777653056877194, 63.40196390812658 12.158051136245302 C63.23500246078485 12.354173552668394, 63.06804101344311 12.550295969091485, 62.59167094296866 13.10986736009567 C62.349800976175366 13.359617958703325, 62.10793100938208 13.609368557310978, 61.72205973676799 14.007812326905684 C61.38358328889745 14.315207681265651, 61.04510684102691 14.622603035625618, 60.79670370850189 14.848196188198111 C60.54246242229321 15.050946848304763, 60.28822113608454 15.253697508411415, 59.81940534457871 15.627565626425152 C59.520619333600635 15.835985813445507, 59.22183332262256 16.044406000465862, 58.79418057360571 16.34271804539089 C58.50095241933278 16.520474675711043, 58.20772426505985 16.698231306031197, 57.72524226407678 16.990714730406093 C57.28464994880138 17.220571459072424, 56.84405763352598 17.450428187738755, 56.61698291279239 17.56889292409717 C56.28936176495236 17.713921087709902, 55.961740617112326 17.85894925132263, 55.473956595147804 18.07487676824742 C55.21620704010549 18.169730987113763, 54.95845748506317 18.2645852059801, 54.30086025146062 18.506587066708033 C53.980302102144655 18.60172704278095, 53.65974395282869 18.696867018853865, 53.10251438623541 18.86224982926107 C52.79330937224865 18.932823855952265, 52.484104358261895 19.003397882643455, 51.883843259676766 19.140403561325773 C51.471929701849994 19.206998550917856, 51.06001614402322 19.27359354050994, 50.64985465284788 19.3399052695533 C50.30262904626034 19.37340170622091, 49.95540343967281 19.40689814288852, 49.4056192896239 19.45993515863156 C49.08213175958183 19.470308774089727, 48.75864422953976 19.480682389547898, 48.15625000000001 19.5 C48.15625000000001 19.5, 48.15625 19.5, 48.15625 19.5 C28.316880822926766 19.5, 8.477511645853532 19.5, -48.15624999999999 19.5 C-48.578254649095385 19.486467132285732, -49.00025929819077 19.47293426457146, -49.40561928962389 19.45993515863156 C-49.753201946753414 19.426404277727578, -50.100784603882936 19.3928733968236, -50.64985465284787 19.3399052695533 C-50.98130679940789 19.286318656947262, -51.3127589459679 19.232732044341223, -51.88384325967676 19.140403561325773 C-52.13763151901422 19.08247804725516, -52.39141977835168 19.02455253318455, -53.102514386235384 18.862249829261074 C-53.463236719321166 18.755189334271382, -53.82395905240695 18.648128839281686, -54.30086025146059 18.506587066708043 C-54.66457540684175 18.372736527381736, -55.028290562222914 18.23888598805543, -55.4739565951478 18.074876768247425 C-55.803563616797746 17.928969517207896, -56.133170638447695 17.78306226616837, -56.61698291279238 17.568892924097174 C-56.89466387024885 17.424026946455278, -57.17234482770532 17.27916096881338, -57.72524226407678 16.990714730406097 C-58.03926191161634 16.80035417468333, -58.3532815591559 16.609993618960566, -58.794180573605686 16.3427180453909 C-59.101786072050416 16.12814576570327, -59.409391570495146 15.91357348601564, -59.81940534457871 15.627565626425156 C-60.16761426471549 15.3498782788446, -60.51582318485226 15.072190931264041, -60.796703708501866 14.848196188198125 C-61.14954829853029 14.527752067290578, -61.50239288855872 14.207307946383033, -61.722059736767974 14.007812326905697 C-61.955563132830356 13.766700899485942, -62.18906652889273 13.525589472066189, -62.591670942968655 13.109867360095677 C-62.82692906399082 12.833519784576735, -63.062187185012974 12.557172209057795, -63.401963908126575 12.158051136245307 C-63.60414041139924 11.887153040518292, -63.80631691467191 11.616254944791278, -64.14960896464063 11.156274872382316 C-64.40004481282736 10.771538158126187, -64.65048066101407 10.38680144387006, -64.83153387860425 10.108655082055249 C-65.07340871557146 9.679181816536857, -65.31528355253866 9.249708551018468, -65.4449364742735 9.019496659696289 C-65.64708508687261 8.599730740346832, -65.84923369947171 8.179964820997377, -65.98729614880834 7.893275190886686 C-66.11921259217264 7.567439025345927, -66.25112903553695 7.241602859805169, -66.45638422997033 6.73461856121551 C-66.5875187337944 6.339662329143192, -66.71865323761848 5.944706097070875, -66.85027313421489 5.5482879393051325 C-66.93852484872265 5.211745903352003, -67.02677656323041 4.875203867398873, -67.16734428754556 4.339158212148136 C-67.22433660358804 4.0465147146002725, -67.28132891963051 3.753871217052409, -67.40629477658177 3.112197953150904 C-67.46325219216844 2.670447485374603, -67.5202096077551 2.2286970175983014, -67.56614270250937 1.872449005199809 C-67.59237101627467 1.4639218471914324, -67.61859933003997 1.0553946891830557, -67.64623121591342 0.6250057626472781 C-67.64623121591342 0.2977584803859744, -67.64623121591342 -0.029488801875329318, -67.64623121591342 -0.6250057626472687 C-67.61691792943894 -1.0815838607462749, -67.58760464296445 -1.538161958845281, -67.56614270250937 -1.8724490051997822 C-67.51903955270078 -2.2377717335462, -67.47193640289218 -2.6030944618926184, -67.40629477658177 -3.112197953150895 C-67.31750426857812 -3.5681184458691817, -67.22871376057445 -4.024038938587468, -67.16734428754556 -4.339158212148126 C-67.09093685921457 -4.630532851563138, -67.01452943088357 -4.921907490978149, -66.85027313421489 -5.548287939305123 C-66.72199163717474 -5.934651369509152, -66.59371014013459 -6.321014799713181, -66.45638422997033 -6.734618561215485 C-66.3282595045771 -7.051089110059806, -66.20013477918387 -7.367559658904127, -65.98729614880834 -7.893275190886676 C-65.80008214716334 -8.282029071040451, -65.61286814551833 -8.670782951194226, -65.4449364742735 -9.019496659696282 C-65.3132306680355 -9.253353655330907, -65.18152486179751 -9.48721065096553, -64.83153387860425 -10.108655082055243 C-64.6113019407114 -10.446990479214437, -64.39107000281855 -10.785325876373632, -64.14960896464063 -11.156274872382308 C-63.90366952772046 -11.485811312311718, -63.657730090800285 -11.815347752241125, -63.40196390812659 -12.158051136245302 C-63.09333558383806 -12.520583527403751, -62.784707259549535 -12.883115918562202, -62.59167094296866 -13.10986736009567 C-62.32724111333868 -13.382912869281393, -62.0628112837087 -13.655958378467117, -61.722059736767996 -14.007812326905677 C-61.408346071570854 -14.292718777228986, -61.09463240637372 -14.577625227552295, -60.79670370850189 -14.848196188198107 C-60.538749566574616 -15.053907751937102, -60.280795424647344 -15.259619315676096, -59.81940534457872 -15.627565626425149 C-59.49577793742471 -15.853314096051127, -59.1721505302707 -16.079062565677106, -58.794180573605715 -16.342718045390885 C-58.51092816405477 -16.514427320636592, -58.22767575450382 -16.6861365958823, -57.72524226407679 -16.99071473040609 C-57.368301724228296 -17.176930381413722, -57.011361184379794 -17.36314603242136, -56.61698291279239 -17.56889292409717 C-56.324471126502 -17.698379214834084, -56.03195934021161 -17.827865505570994, -55.473956595147804 -18.07487676824742 C-55.07268269671131 -18.222549272207306, -54.67140879827482 -18.370221776167188, -54.30086025146062 -18.506587066708033 C-53.8697700876903 -18.63453236447662, -53.43867992391998 -18.762477662245203, -53.10251438623541 -18.862249829261067 C-52.65907515009915 -18.96346194119772, -52.21563591396289 -19.06467405313438, -51.883843259676766 -19.140403561325773 C-51.39932484503305 -19.218736741108945, -50.914806430389326 -19.29706992089212, -50.64985465284788 -19.3399052695533 C-50.24653838013537 -19.37881270532309, -49.84322210742287 -19.417720141092882, -49.4056192896239 -19.45993515863156 C-49.09745551323873 -19.46981737113583, -48.789291736853556 -19.479699583640098, -48.15625000000001 -19.5 C-48.15625000000001 -19.5, -48.15625 -19.5, -48.15625 -19.5" stroke="none" stroke-width="0" fill="#e94560" style="fill:#e94560 !important;stroke:#1a1a2e !important;stroke-width:2px !important"/><path d="M-48.15625 -19.5 C-23.56947071579749 -19.5, 1.0173085684050207 -19.5, 48.15625 -19.5 M-48.15625 -19.5 C-27.918276427241207 -19.5, -7.680302854482413 -19.5, 48.15625 -19.5 M48.15625 -19.5 C48.15625 -19.5, 48.15625 -19.5, 48.15625 -19.5 M48.15625 -19.5 C48.15625 -19.5, 48.15625 -19.5, 48.15625 -19.5 M48.15625 -19.5 C48.45558752606866 -19.490400828164127, 48.754925052137324 -19.480801656328254, 49.4056192896239 -19.45993515863156 M48.15625 -19.5 C48.58137898470497 -19.486366940923883, 49.00650796940994 -19.472733881847763, 49.4056192896239 -19.45993515863156 M49.4056192896239 -19.45993515863156 C49.87775322870278 -19.414388965352757, 50.34988716778165 -19.368842772073954, 50.649854652847864 -19.3399052695533 M49.4056192896239 -19.45993515863156 C49.8230819056978 -19.419663042131162, 50.24054452177169 -19.379390925630762, 50.649854652847864 -19.3399052695533 M50.649854652847864 -19.3399052695533 C51.135622608447875 -19.26137007367865, 51.62139056404788 -19.182834877803998, 51.88384325967676 -19.140403561325776 M50.649854652847864 -19.3399052695533 C50.900684171318275 -19.29935309821897, 51.151513689788686 -19.258800926884643, 51.88384325967676 -19.140403561325776 M51.88384325967676 -19.140403561325776 C52.164011143269676 -19.076457070161993, 52.44417902686259 -19.01251057899821, 53.10251438623539 -18.862249829261074 M51.88384325967676 -19.140403561325776 C52.33416204645923 -19.03762123684739, 52.784480833241695 -18.934838912369, 53.10251438623539 -18.862249829261074 M53.10251438623539 -18.862249829261074 C53.39726323248472 -18.774769918862543, 53.69201207873404 -18.687290008464007, 54.300860251460605 -18.50658706670804 M53.10251438623539 -18.862249829261074 C53.46838207701908 -18.753662219115174, 53.83424976780277 -18.645074608969274, 54.300860251460605 -18.50658706670804 M54.300860251460605 -18.50658706670804 C54.58621361796999 -18.401574390054982, 54.87156698447937 -18.296561713401925, 55.4739565951478 -18.074876768247425 M54.300860251460605 -18.50658706670804 C54.56842463139905 -18.408120901552678, 54.83598901133749 -18.309654736397317, 55.4739565951478 -18.074876768247425 M55.4739565951478 -18.074876768247425 C55.70467919915045 -17.972742715598326, 55.9354018031531 -17.870608662949227, 56.61698291279238 -17.568892924097174 M55.4739565951478 -18.074876768247425 C55.84066875788315 -17.912544171934293, 56.2073809206185 -17.750211575621158, 56.61698291279238 -17.568892924097174 M56.61698291279238 -17.568892924097174 C56.90096291822622 -17.420740737160212, 57.18494292366007 -17.272588550223254, 57.72524226407678 -16.990714730406097 M56.61698291279238 -17.568892924097174 C56.89453422629762 -17.424094581621592, 57.172085539802865 -17.27929623914601, 57.72524226407678 -16.990714730406097 M57.72524226407678 -16.990714730406097 C58.07290128031712 -16.77996179169005, 58.420560296557454 -16.569208852974, 58.7941805736057 -16.342718045390892 M57.72524226407678 -16.990714730406097 C58.023455450248434 -16.809936144453637, 58.32166863642008 -16.629157558501177, 58.7941805736057 -16.342718045390892 M58.7941805736057 -16.342718045390892 C59.17184956595354 -16.079272505356215, 59.54951855830139 -15.815826965321536, 59.81940534457871 -15.627565626425154 M58.7941805736057 -16.342718045390892 C59.06385298176402 -16.154606247390046, 59.33352538992235 -15.966494449389195, 59.81940534457871 -15.627565626425154 M59.81940534457871 -15.627565626425154 C60.123321131478164 -15.385200873911584, 60.427236918377616 -15.142836121398014, 60.796703708501866 -14.848196188198123 M59.81940534457871 -15.627565626425154 C60.10488411806416 -15.399903901479716, 60.39036289154962 -15.172242176534276, 60.796703708501866 -14.848196188198123 M60.796703708501866 -14.848196188198123 C61.162925617874194 -14.515603139806924, 61.529147527246515 -14.183010091415724, 61.72205973676799 -14.007812326905688 M60.796703708501866 -14.848196188198123 C61.041042834961935 -14.626293858406116, 61.285381961422 -14.40439152861411, 61.72205973676799 -14.007812326905688 M61.72205973676799 -14.007812326905688 C62.01307181783424 -13.707318460668589, 62.30408389890049 -13.40682459443149, 62.59167094296865 -13.10986736009568 M61.72205973676799 -14.007812326905688 C62.05682755458288 -13.662137070062816, 62.391595372397774 -13.316461813219941, 62.59167094296865 -13.10986736009568 M62.59167094296865 -13.10986736009568 C62.861821024448126 -12.792533702414786, 63.1319711059276 -12.475200044733892, 63.40196390812658 -12.158051136245305 M62.59167094296865 -13.10986736009568 C62.761089621653916 -12.910858539916058, 62.93050830033918 -12.711849719736433, 63.40196390812658 -12.158051136245305 M63.40196390812658 -12.158051136245305 C63.6827439029414 -11.781831522777205, 63.963523897756204 -11.405611909309107, 64.14960896464063 -11.156274872382312 M63.40196390812658 -12.158051136245305 C63.567254312795846 -11.936577052254131, 63.73254471746511 -11.715102968262958, 64.14960896464063 -11.156274872382312 M64.14960896464063 -11.156274872382312 C64.39550736243164 -10.778508900410026, 64.64140576022265 -10.400742928437742, 64.83153387860425 -10.108655082055241 M64.14960896464063 -11.156274872382312 C64.40033899556364 -10.771086214444113, 64.65106902648665 -10.385897556505913, 64.83153387860425 -10.108655082055241 M64.83153387860425 -10.108655082055241 C65.0387684218009 -9.740689165836585, 65.24600296499754 -9.372723249617927, 65.4449364742735 -9.019496659696287 M64.83153387860425 -10.108655082055241 C64.99113266353278 -9.82527127828521, 65.15073144846131 -9.54188747451518, 65.4449364742735 -9.019496659696287 M65.4449364742735 -9.019496659696287 C65.65818900368492 -8.576673219500284, 65.87144153309636 -8.133849779304283, 65.98729614880834 -7.893275190886684 M65.4449364742735 -9.019496659696287 C65.6038160635566 -8.689579793071331, 65.76269565283968 -8.359662926446374, 65.98729614880834 -7.893275190886684 M65.98729614880834 -7.893275190886684 C66.13332523139003 -7.5325805336296785, 66.27935431397171 -7.171885876372674, 66.45638422997033 -6.734618561215508 M65.98729614880834 -7.893275190886684 C66.16027682408958 -7.466009578588174, 66.33325749937083 -7.038743966289664, 66.45638422997033 -6.734618561215508 M66.45638422997033 -6.734618561215508 C66.5862117001015 -6.343598906378654, 66.71603917023269 -5.952579251541801, 66.85027313421489 -5.548287939305138 M66.45638422997033 -6.734618561215508 C66.59713463461864 -6.310700767946322, 66.73788503926696 -5.8867829746771365, 66.85027313421489 -5.548287939305138 M66.85027313421489 -5.548287939305138 C66.91495812333264 -5.3016160411475015, 66.9796431124504 -5.054944142989866, 67.16734428754556 -4.339158212148133 M66.85027313421489 -5.548287939305138 C66.9362802510046 -5.220305527265724, 67.02228736779432 -4.8923231152263105, 67.16734428754556 -4.339158212148133 M67.16734428754556 -4.339158212148133 C67.23173018038845 -4.008550260363137, 67.29611607323135 -3.6779423085781398, 67.40629477658177 -3.1121979531509023 M67.16734428754556 -4.339158212148133 C67.25630275526989 -3.882375281762547, 67.34526122299421 -3.425592351376961, 67.40629477658177 -3.1121979531509023 M67.40629477658177 -3.1121979531509023 C67.46294876589936 -2.672800799599372, 67.51960275521694 -2.233403646047842, 67.56614270250937 -1.872449005199798 M67.40629477658177 -3.1121979531509023 C67.4671569951911 -2.6401626042214605, 67.52801921380042 -2.168127255292019, 67.56614270250937 -1.872449005199798 M67.56614270250937 -1.872449005199798 C67.58231846526617 -1.6204984434218859, 67.59849422802297 -1.3685478816439738, 67.64623121591342 -0.6250057626472757 M67.56614270250937 -1.872449005199798 C67.59262215828568 -1.460010107651827, 67.61910161406198 -1.0475712101038561, 67.64623121591342 -0.6250057626472757 M67.64623121591342 -0.6250057626472757 C67.64623121591342 -0.23851857150190442, 67.64623121591342 0.14796861964346686, 67.64623121591342 0.625005762647271 M67.64623121591342 -0.6250057626472757 C67.64623121591342 -0.1463351807522748, 67.64623121591342 0.3323354011427261, 67.64623121591342 0.625005762647271 M67.64623121591342 0.625005762647271 C67.62258004970305 0.9933917672516352, 67.59892888349266 1.3617777718559994, 67.56614270250937 1.8724490051997846 M67.64623121591342 0.625005762647271 C67.61563616689976 1.1015483469141079, 67.58504111788609 1.5780909311809446, 67.56614270250937 1.8724490051997846 M67.56614270250937 1.8724490051997846 C67.51760831383952 2.2488721395240274, 67.46907392516967 2.6252952738482698, 67.40629477658177 3.1121979531508885 M67.56614270250937 1.8724490051997846 C67.52365406616215 2.201982478378519, 67.48116542981494 2.531515951557253, 67.40629477658177 3.1121979531508885 M67.40629477658177 3.1121979531508885 C67.32677326350235 3.5205241159360408, 67.2472517504229 3.9288502787211925, 67.16734428754556 4.339158212148129 M67.40629477658177 3.1121979531508885 C67.33141135451999 3.4967084988212864, 67.25652793245821 3.8812190444916843, 67.16734428754556 4.339158212148129 M67.16734428754556 4.339158212148129 C67.05950932012948 4.750379678876154, 66.95167435271341 5.161601145604179, 66.85027313421489 5.548287939305125 M67.16734428754556 4.339158212148129 C67.04659508842147 4.799627241442218, 66.92584588929739 5.260096270736308, 66.85027313421489 5.548287939305125 M66.85027313421489 5.548287939305125 C66.74710555072151 5.85901226326498, 66.64393796722814 6.169736587224835, 66.45638422997033 6.734618561215495 M66.85027313421489 5.548287939305125 C66.7019507638821 5.995011286787075, 66.55362839354929 6.441734634269025, 66.45638422997033 6.734618561215495 M66.45638422997033 6.734618561215495 C66.27935625312287 7.171881086631799, 66.10232827627541 7.609143612048102, 65.98729614880834 7.893275190886679 M66.45638422997033 6.734618561215495 C66.31092814024663 7.093897915035204, 66.16547205052294 7.4531772688549145, 65.98729614880834 7.893275190886679 M65.98729614880834 7.893275190886679 C65.81755630021209 8.245743618347731, 65.64781645161585 8.598212045808785, 65.4449364742735 9.019496659696284 M65.98729614880834 7.893275190886679 C65.86300165411167 8.151375368600474, 65.73870715941499 8.40947554631427, 65.4449364742735 9.019496659696284 M65.4449364742735 9.019496659696284 C65.21563891462242 9.42663769575248, 64.98634135497132 9.833778731808676, 64.83153387860425 10.108655082055236 M65.4449364742735 9.019496659696284 C65.25837156078352 9.35076155534379, 65.07180664729354 9.682026450991296, 64.83153387860425 10.108655082055236 M64.83153387860425 10.108655082055236 C64.57500804542741 10.502747648646137, 64.31848221225057 10.896840215237038, 64.14960896464065 11.156274872382301 M64.83153387860425 10.108655082055236 C64.56116073030604 10.524020843197322, 64.29078758200782 10.939386604339408, 64.14960896464065 11.156274872382301 M64.14960896464065 11.156274872382301 C63.93284563013642 11.446717993071946, 63.71608229563219 11.737161113761593, 63.40196390812658 12.158051136245302 M64.14960896464065 11.156274872382301 C63.96168374450179 11.408077547028618, 63.77375852436293 11.659880221674934, 63.40196390812658 12.158051136245302 M63.40196390812658 12.158051136245302 C63.149580177200725 12.454515427631932, 62.897196446274876 12.750979719018563, 62.59167094296866 13.10986736009567 M63.40196390812658 12.158051136245302 C63.146419781385575 12.458227808388031, 62.89087565464456 12.75840448053076, 62.59167094296866 13.10986736009567 M62.59167094296866 13.10986736009567 C62.2584064157781 13.453990345946464, 61.92514188858753 13.798113331797259, 61.72205973676799 14.007812326905684 M62.59167094296866 13.10986736009567 C62.356016865544596 13.353199542595586, 62.12036278812054 13.596531725095502, 61.72205973676799 14.007812326905684 M61.72205973676799 14.007812326905684 C61.37651314104804 14.321628602476629, 61.03096654532808 14.635444878047572, 60.79670370850189 14.848196188198111 M61.72205973676799 14.007812326905684 C61.364056774512186 14.332941144987085, 61.00605381225638 14.658069963068488, 60.79670370850189 14.848196188198111 M60.79670370850189 14.848196188198111 C60.4933985271156 15.090073999063822, 60.19009334572932 15.331951809929533, 59.81940534457871 15.627565626425152 M60.79670370850189 14.848196188198111 C60.58850410473283 15.014229831779796, 60.38030450096377 15.18026347536148, 59.81940534457871 15.627565626425152 M59.81940534457871 15.627565626425152 C59.50117860903753 15.84954682132533, 59.18295187349634 16.071528016225507, 58.79418057360571 16.34271804539089 M59.81940534457871 15.627565626425152 C59.4134638742901 15.910732823175465, 59.00752240400149 16.193900019925778, 58.79418057360571 16.34271804539089 M58.79418057360571 16.34271804539089 C58.51277628795794 16.513306977065703, 58.23137200231018 16.68389590874052, 57.72524226407678 16.990714730406093 M58.79418057360571 16.34271804539089 C58.410823443938334 16.575111390251806, 58.02746631427096 16.807504735112726, 57.72524226407678 16.990714730406093 M57.72524226407678 16.990714730406093 C57.351707227340285 17.18558771981092, 56.97817219060378 17.38046070921574, 56.61698291279239 17.56889292409717 M57.72524226407678 16.990714730406093 C57.29550339224919 17.214909224577667, 56.865764520421585 17.43910371874924, 56.61698291279239 17.56889292409717 M56.61698291279239 17.56889292409717 C56.16812074654223 17.767590890073038, 55.71925858029207 17.966288856048905, 55.473956595147804 18.07487676824742 M56.61698291279239 17.56889292409717 C56.32082945464346 17.6999912749395, 56.02467599649453 17.831089625781832, 55.473956595147804 18.07487676824742 M55.473956595147804 18.07487676824742 C55.164479768505835 18.18876710122409, 54.85500294186386 18.302657434200764, 54.30086025146062 18.506587066708033 M55.473956595147804 18.07487676824742 C55.1895346378291 18.17954667770846, 54.905112680510385 18.284216587169496, 54.30086025146062 18.506587066708033 M54.30086025146062 18.506587066708033 C54.060162007082035 18.57802504218873, 53.81946376270344 18.64946301766943, 53.10251438623541 18.86224982926107 M54.30086025146062 18.506587066708033 C54.027430184071534 18.587739675445402, 53.754000116682455 18.66889228418277, 53.10251438623541 18.86224982926107 M53.10251438623541 18.86224982926107 C52.679485113753856 18.958803500181, 52.2564558412723 19.055357171100926, 51.883843259676766 19.140403561325773 M53.10251438623541 18.86224982926107 C52.66322346858863 18.962515114572806, 52.22393255094186 19.062780399884545, 51.883843259676766 19.140403561325773 M51.883843259676766 19.140403561325773 C51.51162510070248 19.200580906673803, 51.13940694172819 19.26075825202183, 50.64985465284788 19.3399052695533 M51.883843259676766 19.140403561325773 C51.574947099123456 19.19034349703853, 51.266050938570146 19.240283432751287, 50.64985465284788 19.3399052695533 M50.64985465284788 19.3399052695533 C50.233570774770186 19.380063674616842, 49.817286896692494 19.420222079680386, 49.4056192896239 19.45993515863156 M50.64985465284788 19.3399052695533 C50.17023953454949 19.386173163193973, 49.690624416251104 19.432441056834648, 49.4056192896239 19.45993515863156 M49.4056192896239 19.45993515863156 C49.113624203178986 19.46929887271989, 48.82162911673407 19.478662586808223, 48.15625000000001 19.5 M49.4056192896239 19.45993515863156 C49.037953302213026 19.471725491229396, 48.670287314802145 19.483515823827233, 48.15625000000001 19.5 M48.15625000000001 19.5 C48.15625000000001 19.5, 48.15625 19.5, 48.15625 19.5 M48.15625000000001 19.5 C48.15625000000001 19.5, 48.15625 19.5, 48.15625 19.5 M48.15625 19.5 C25.833940994195736 19.5, 3.5116319883914713 19.5, -48.15624999999999 19.5 M48.15625 19.5 C15.583151707305227 19.5, -16.989946585389546 19.5, -48.15624999999999 19.5 M-48.15624999999999 19.5 C-48.5690856867758 19.48676116306102, -48.98192137355161 19.473522326122033, -49.40561928962389 19.45993515863156 M-48.15624999999999 19.5 C-48.597062377165315 19.48586400505355, -49.037874754330645 19.4717280101071, -49.40561928962389 19.45993515863156 M-49.40561928962389 19.45993515863156 C-49.883959355135886 19.413790267799712, -50.36229942064788 19.367645376967868, -50.64985465284787 19.3399052695533 M-49.40561928962389 19.45993515863156 C-49.77451486926115 19.4243482457258, -50.1434104488984 19.388761332820035, -50.64985465284787 19.3399052695533 M-50.64985465284787 19.3399052695533 C-50.9303444289214 19.29455785778843, -51.21083420499494 19.24921044602356, -51.88384325967676 19.140403561325773 M-50.64985465284787 19.3399052695533 C-51.11043701804242 19.265441884618234, -51.57101938323696 19.190978499683165, -51.88384325967676 19.140403561325773 M-51.88384325967676 19.140403561325773 C-52.21273308253604 19.06533660546481, -52.54162290539532 18.990269649603846, -53.102514386235384 18.862249829261074 M-51.88384325967676 19.140403561325773 C-52.26314056383349 19.053831426798222, -52.64243786799022 18.967259292270676, -53.102514386235384 18.862249829261074 M-53.102514386235384 18.862249829261074 C-53.416309199938546 18.769117175696564, -53.730104013641714 18.675984522132058, -54.30086025146059 18.506587066708043 M-53.102514386235384 18.862249829261074 C-53.503355381410955 18.743282325950286, -53.904196376586526 18.624314822639498, -54.30086025146059 18.506587066708043 M-54.30086025146059 18.506587066708043 C-54.549601480880696 18.415047994942725, -54.79834271030081 18.323508923177407, -55.4739565951478 18.074876768247425 M-54.30086025146059 18.506587066708043 C-54.7496881393944 18.341414255028887, -55.19851602732821 18.17624144334973, -55.4739565951478 18.074876768247425 M-55.4739565951478 18.074876768247425 C-55.92807809163907 17.873850652786302, -56.382199588130355 17.67282453732518, -56.61698291279238 17.568892924097174 M-55.4739565951478 18.074876768247425 C-55.8950983655256 17.888449799227924, -56.31624013590339 17.702022830208424, -56.61698291279238 17.568892924097174 M-56.61698291279238 17.568892924097174 C-57.033379593541476 17.351659042465172, -57.44977627429058 17.13442516083317, -57.72524226407678 16.990714730406097 M-56.61698291279238 17.568892924097174 C-57.03497910016269 17.350824580885423, -57.45297528753299 17.13275623767367, -57.72524226407678 16.990714730406097 M-57.72524226407678 16.990714730406097 C-57.94701293846199 16.85627604432464, -58.16878361284719 16.72183735824319, -58.794180573605686 16.3427180453909 M-57.72524226407678 16.990714730406097 C-58.09989029850938 16.76360089025682, -58.47453833294198 16.53648705010755, -58.794180573605686 16.3427180453909 M-58.794180573605686 16.3427180453909 C-59.173800163645566 16.077911852846274, -59.553419753685446 15.813105660301646, -59.81940534457871 15.627565626425156 M-58.794180573605686 16.3427180453909 C-59.01389779657263 16.189452822054445, -59.23361501953957 16.03618759871799, -59.81940534457871 15.627565626425156 M-59.81940534457871 15.627565626425156 C-60.08894916009932 15.412611606409644, -60.358492975619924 15.197657586394131, -60.796703708501866 14.848196188198125 M-59.81940534457871 15.627565626425156 C-60.16572782441268 15.351382664785804, -60.51205030424664 15.075199703146453, -60.796703708501866 14.848196188198125 M-60.796703708501866 14.848196188198125 C-61.02013620160998 14.645280709657152, -61.2435686947181 14.44236523111618, -61.722059736767974 14.007812326905697 M-60.796703708501866 14.848196188198125 C-61.10574616432064 14.56753200663882, -61.41478862013942 14.286867825079515, -61.722059736767974 14.007812326905697 M-61.722059736767974 14.007812326905697 C-62.00618580438942 13.714428834902582, -62.290311872010854 13.421045342899468, -62.591670942968655 13.109867360095677 M-61.722059736767974 14.007812326905697 C-61.93840309541744 13.784420046980044, -62.15474645406692 13.56102776705439, -62.591670942968655 13.109867360095677 M-62.591670942968655 13.109867360095677 C-62.89462621421334 12.753998859848386, -63.197581485458024 12.398130359601096, -63.401963908126575 12.158051136245307 M-62.591670942968655 13.109867360095677 C-62.80069908620211 12.864331009015368, -63.00972722943556 12.618794657935057, -63.401963908126575 12.158051136245307 M-63.401963908126575 12.158051136245307 C-63.582891015144284 11.915625295640114, -63.76381812216199 11.67319945503492, -64.14960896464063 11.156274872382316 M-63.401963908126575 12.158051136245307 C-63.659042508803196 11.813589231680963, -63.91612110947982 11.469127327116619, -64.14960896464063 11.156274872382316 M-64.14960896464063 11.156274872382316 C-64.37712825984366 10.806744137465264, -64.60464755504667 10.457213402548215, -64.83153387860425 10.108655082055249 M-64.14960896464063 11.156274872382316 C-64.38105926075612 10.800705064442164, -64.61250955687161 10.445135256502013, -64.83153387860425 10.108655082055249 M-64.83153387860425 10.108655082055249 C-65.0353531601471 9.746753308735654, -65.23917244168995 9.384851535416058, -65.4449364742735 9.019496659696289 M-64.83153387860425 10.108655082055249 C-64.97698544665747 9.850391094408389, -65.12243701471068 9.592127106761529, -65.4449364742735 9.019496659696289 M-65.4449364742735 9.019496659696289 C-65.61468620434529 8.667007713139842, -65.78443593441708 8.314518766583394, -65.98729614880834 7.893275190886686 M-65.4449364742735 9.019496659696289 C-65.56557006770412 8.76899842179223, -65.68620366113471 8.51850018388817, -65.98729614880834 7.893275190886686 M-65.98729614880834 7.893275190886686 C-66.15094183696368 7.489067177268865, -66.31458752511901 7.084859163651044, -66.45638422997033 6.73461856121551 M-65.98729614880834 7.893275190886686 C-66.11038163500132 7.589251660294034, -66.23346712119431 7.285228129701381, -66.45638422997033 6.73461856121551 M-66.45638422997033 6.73461856121551 C-66.57195598068229 6.386534861928912, -66.68752773139424 6.038451162642314, -66.85027313421489 5.5482879393051325 M-66.45638422997033 6.73461856121551 C-66.60788323024428 6.278327710478015, -66.75938223051826 5.822036859740521, -66.85027313421489 5.5482879393051325 M-66.85027313421489 5.5482879393051325 C-66.94232810366059 5.197242443932556, -67.03438307310628 4.846196948559978, -67.16734428754556 4.339158212148136 M-66.85027313421489 5.5482879393051325 C-66.92239157080391 5.2732690842630685, -66.99451000739292 4.998250229221005, -67.16734428754556 4.339158212148136 M-67.16734428754556 4.339158212148136 C-67.2161849869855 4.088371543009576, -67.26502568642542 3.837584873871016, -67.40629477658177 3.112197953150904 M-67.16734428754556 4.339158212148136 C-67.23345642415453 3.9996863634661293, -67.29956856076349 3.6602145147841227, -67.40629477658177 3.112197953150904 M-67.40629477658177 3.112197953150904 C-67.46272602293162 2.6745283500715415, -67.51915726928146 2.236858746992179, -67.56614270250937 1.872449005199809 M-67.40629477658177 3.112197953150904 C-67.46016113031033 2.694421150746913, -67.51402748403889 2.2766443483429213, -67.56614270250937 1.872449005199809 M-67.56614270250937 1.872449005199809 C-67.59673743213793 1.395911395613698, -67.62733216176649 0.9193737860275867, -67.64623121591342 0.6250057626472781 M-67.56614270250937 1.872449005199809 C-67.5871401616218 1.5453966306795954, -67.60813762073425 1.2183442561593818, -67.64623121591342 0.6250057626472781 M-67.64623121591342 0.6250057626472781 C-67.64623121591342 0.29140446470772197, -67.64623121591342 -0.04219683323183421, -67.64623121591342 -0.6250057626472687 M-67.64623121591342 0.6250057626472781 C-67.64623121591342 0.3516170470253656, -67.64623121591342 0.07822833140345309, -67.64623121591342 -0.6250057626472687 M-67.64623121591342 -0.6250057626472687 C-67.62505138671322 -0.9548986984907664, -67.60387155751302 -1.284791634334264, -67.56614270250937 -1.8724490051997822 M-67.64623121591342 -0.6250057626472687 C-67.62759073175685 -0.9153463497136989, -67.60895024760029 -1.205686936780129, -67.56614270250937 -1.8724490051997822 M-67.56614270250937 -1.8724490051997822 C-67.51397549553798 -2.2770475608896983, -67.46180828856659 -2.681646116579614, -67.40629477658177 -3.112197953150895 M-67.56614270250937 -1.8724490051997822 C-67.52116734931978 -2.2212689631501936, -67.47619199613018 -2.570088921100605, -67.40629477658177 -3.112197953150895 M-67.40629477658177 -3.112197953150895 C-67.34365435232634 -3.43384329264421, -67.2810139280709 -3.755488632137525, -67.16734428754556 -4.339158212148126 M-67.40629477658177 -3.112197953150895 C-67.33796532469468 -3.4630552471563805, -67.26963587280758 -3.8139125411618657, -67.16734428754556 -4.339158212148126 M-67.16734428754556 -4.339158212148126 C-67.0595058323299 -4.75039297936758, -66.95166737711423 -5.161627746587033, -66.85027313421489 -5.548287939305123 M-67.16734428754556 -4.339158212148126 C-67.04663839647748 -4.7994620890548445, -66.92593250540939 -5.259765965961563, -66.85027313421489 -5.548287939305123 M-66.85027313421489 -5.548287939305123 C-66.7317932882682 -5.905130358096672, -66.6133134423215 -6.261972776888221, -66.45638422997033 -6.734618561215485 M-66.85027313421489 -5.548287939305123 C-66.75392220243478 -5.838481594390574, -66.65757127065469 -6.128675249476025, -66.45638422997033 -6.734618561215485 M-66.45638422997033 -6.734618561215485 C-66.3067218148901 -7.104287619989601, -66.15705939980987 -7.4739566787637175, -65.98729614880834 -7.893275190886676 M-66.45638422997033 -6.734618561215485 C-66.30068034676908 -7.119210163052329, -66.14497646356786 -7.5038017648891735, -65.98729614880834 -7.893275190886676 M-65.98729614880834 -7.893275190886676 C-65.77849322480417 -8.326858930248203, -65.5696903008 -8.760442669609732, -65.4449364742735 -9.019496659696282 M-65.98729614880834 -7.893275190886676 C-65.78858306826828 -8.305907154406917, -65.58986998772822 -8.71853911792716, -65.4449364742735 -9.019496659696282 M-65.4449364742735 -9.019496659696282 C-65.25630627687606 -9.354428676054152, -65.06767607947863 -9.689360692412022, -64.83153387860425 -10.108655082055243 M-65.4449364742735 -9.019496659696282 C-65.24263982897848 -9.378694838174217, -65.04034318368346 -9.737893016652153, -64.83153387860425 -10.108655082055243 M-64.83153387860425 -10.108655082055243 C-64.63790253157077 -10.406124828395642, -64.4442711845373 -10.70359457473604, -64.14960896464063 -11.156274872382308 M-64.83153387860425 -10.108655082055243 C-64.66376382263428 -10.366394940593102, -64.4959937666643 -10.624134799130958, -64.14960896464063 -11.156274872382308 M-64.14960896464063 -11.156274872382308 C-63.97503203541739 -11.390192053256024, -63.80045510619415 -11.62410923412974, -63.40196390812659 -12.158051136245302 M-64.14960896464063 -11.156274872382308 C-63.95763622868975 -11.413500849480466, -63.76566349273887 -11.670726826578623, -63.40196390812659 -12.158051136245302 M-63.40196390812659 -12.158051136245302 C-63.12241126802851 -12.486429574300352, -62.842858627930426 -12.814808012355405, -62.59167094296866 -13.10986736009567 M-63.40196390812659 -12.158051136245302 C-63.239643469985836 -12.34872195918001, -63.07732303184509 -12.539392782114719, -62.59167094296866 -13.10986736009567 M-62.59167094296866 -13.10986736009567 C-62.26353507845319 -13.448694580663398, -61.935399213937714 -13.787521801231126, -61.722059736767996 -14.007812326905677 M-62.59167094296866 -13.10986736009567 C-62.32626200264893 -13.38392388145504, -62.0608530623292 -13.657980402814408, -61.722059736767996 -14.007812326905677 M-61.722059736767996 -14.007812326905677 C-61.49246562659486 -14.21632362303765, -61.26287151642172 -14.424834919169623, -60.79670370850189 -14.848196188198107 M-61.722059736767996 -14.007812326905677 C-61.391822087461755 -14.307725422396212, -61.06158443815551 -14.607638517886745, -60.79670370850189 -14.848196188198107 M-60.79670370850189 -14.848196188198107 C-60.47648934138865 -15.103558624708734, -60.15627497427542 -15.358921061219363, -59.81940534457872 -15.627565626425149 M-60.79670370850189 -14.848196188198107 C-60.5966219840548 -15.007756039046361, -60.39654025960772 -15.167315889894615, -59.81940534457872 -15.627565626425149 M-59.81940534457872 -15.627565626425149 C-59.476899241267624 -15.866483057244723, -59.13439313795653 -16.105400488064298, -58.794180573605715 -16.342718045390885 M-59.81940534457872 -15.627565626425149 C-59.50199238460339 -15.848979166718362, -59.18457942462806 -16.070392707011575, -58.794180573605715 -16.342718045390885 M-58.794180573605715 -16.342718045390885 C-58.57774446022951 -16.473922889239326, -58.3613083468533 -16.605127733087762, -57.72524226407679 -16.99071473040609 M-58.794180573605715 -16.342718045390885 C-58.43480130377391 -16.56057587070994, -58.0754220339421 -16.77843369602899, -57.72524226407679 -16.99071473040609 M-57.72524226407679 -16.99071473040609 C-57.304490145142935 -17.210220841349287, -56.88373802620909 -17.429726952292484, -56.61698291279239 -17.56889292409717 M-57.72524226407679 -16.99071473040609 C-57.466392214834144 -17.12575663529461, -57.20754216559149 -17.26079854018313, -56.61698291279239 -17.56889292409717 M-56.61698291279239 -17.56889292409717 C-56.25409329451197 -17.729533393371856, -55.891203676231555 -17.89017386264654, -55.473956595147804 -18.07487676824742 M-56.61698291279239 -17.56889292409717 C-56.20801050158811 -17.749932878801765, -55.79903809038383 -17.930972833506363, -55.473956595147804 -18.07487676824742 M-55.473956595147804 -18.07487676824742 C-55.05473570397708 -18.229153931433682, -54.63551481280636 -18.383431094619944, -54.30086025146062 -18.506587066708033 M-55.473956595147804 -18.07487676824742 C-55.0168554363278 -18.243094220089976, -54.5597542775078 -18.411311671932527, -54.30086025146062 -18.506587066708033 M-54.30086025146062 -18.506587066708033 C-54.01710115441527 -18.590805277229197, -53.733342057369924 -18.675023487750362, -53.10251438623541 -18.862249829261067 M-54.30086025146062 -18.506587066708033 C-53.96094897011407 -18.607470950780964, -53.621037688767515 -18.708354834853896, -53.10251438623541 -18.862249829261067 M-53.10251438623541 -18.862249829261067 C-52.652854603646716 -18.964881740332633, -52.20319482105802 -19.067513651404195, -51.883843259676766 -19.140403561325773 M-53.10251438623541 -18.862249829261067 C-52.714447865848605 -18.950823480168648, -52.3263813454618 -19.039397131076228, -51.883843259676766 -19.140403561325773 M-51.883843259676766 -19.140403561325773 C-51.50358405048576 -19.201880921313563, -51.12332484129476 -19.263358281301358, -50.64985465284788 -19.3399052695533 M-51.883843259676766 -19.140403561325773 C-51.41116749243198 -19.21682211371859, -50.93849172518719 -19.293240666111405, -50.64985465284788 -19.3399052695533 M-50.64985465284788 -19.3399052695533 C-50.159099874693865 -19.387247792782844, -49.668345096539845 -19.43459031601239, -49.4056192896239 -19.45993515863156 M-50.64985465284788 -19.3399052695533 C-50.353273457082864 -19.368516100817676, -50.056692261317856 -19.397126932082053, -49.4056192896239 -19.45993515863156 M-49.4056192896239 -19.45993515863156 C-48.96173108039709 -19.47416978952548, -48.517842871170274 -19.488404420419396, -48.15625000000001 -19.5 M-49.4056192896239 -19.45993515863156 C-48.98428175861063 -19.473446633167402, -48.562944227597356 -19.486958107703245, -48.15625000000001 -19.5 M-48.15625000000001 -19.5 C-48.15625000000001 -19.5, -48.15625 -19.5, -48.15625 -19.5 M-48.15625000000001 -19.5 C-48.15625000000001 -19.5, -48.15625 -19.5, -48.15625 -19.5" stroke="#1a1a2e" stroke-width="2" fill="none" stroke-dasharray="0 0" style="fill:#e94560 !important;stroke:#1a1a2e !important;stroke-width:2px !important"/></g><g class="label" style="color:#fff !important" transform="translate(-55.28125, -12)"><rect/><foreignObject width="110.5625" height="24"><div style="color: rgb(255, 255, 255) !important; display: table-cell; white-space: nowrap; line-height: 1.5; max-width: 200px; text-align: center;" xmlns="http://www.w3.org/1999/xhtml"><span style="color:#fff !important" class="nodeLabel"><p>WebRTC Client</p></span></div></foreignObject></g></g><g class="node default ifaceStyle" id="flowchart-MARS_IFACE-1" transform="translate(1052.8359375, 209)"><rect class="basic label-container" style="fill:#16213e !important;stroke:#e94560 !important;stroke-width:2px !important" x="-81.1640625" y="-39" width="162.328125" height="78"/><g class="label" style="color:#eee !important" transform="translate(-51.1640625, -24)"><rect/><foreignObject width="102.328125" height="48"><div style="color: rgb(238, 238, 238) !important; display: table-cell; white-space: nowrap; line-height: 1.5; max-width: 200px; text-align: center;" xmlns="http://www.w3.org/1999/xhtml"><span style="color:#eee !important" class="nodeLabel"><p>eth0<br />94.130.141.98</p></span></div></foreignObject></g></g><g class="node default iptStyle" id="flowchart-MARS_IPT-2" transform="translate(1052.8359375, 385)"><rect class="basic label-container" style="fill:#0f3460 !important;stroke:#e94560 !important;stroke-width:1px !important" x="-111.0546875" y="-39" width="222.109375" height="78"/><g class="label" style="color:#eee !important" transform="translate(-81.0546875, -24)"><rect/><foreignObject width="162.109375" height="48"><div style="color: rgb(238, 238, 238) !important; display: table-cell; white-space: nowrap; line-height: 1.5; max-width: 200px; text-align: center;" xmlns="http://www.w3.org/1999/xhtml"><span style="color:#eee !important" class="nodeLabel"><p>iptables DNAT<br />COTURN_DNAT chain</p></span></div></foreignObject></g></g><g class="node default workerStyle" id="flowchart-MARS_W-3" transform="translate(1052.8359375, 561)"><rect class="basic label-container" style="fill:#533483 !important;stroke:#e94560 !important;stroke-width:1px !important" x="-76.234375" y="-39" width="152.46875" height="78"/><g class="label" style="color:#eee !important" transform="translate(-46.234375, -24)"><rect/><foreignObject width="92.46875" height="48"><div style="color: rgb(238, 238, 238) !important; display: table-cell; white-space: nowrap; line-height: 1.5; max-width: 200px; text-align: center;" xmlns="http://www.w3.org/1999/xhtml"><span style="color:#eee !important" class="nodeLabel"><p>k8s-worker-1<br />10.10.10.11</p></span></div></foreignObject></g></g><g class="node default coturnStyle" id="flowchart-MARS_COTURN-4" transform="translate(1052.8359375, 738)"><rect class="basic label-container" style="fill:#1a1a2e !important;stroke:#e94560 !important;stroke-width:2px !important" x="-98.9453125" y="-63" width="197.890625" height="126"/><g class="label" style="color:#eee !important" transform="translate(-68.9453125, -48)"><rect/><foreignObject width="137.890625" height="96"><div style="color: rgb(238, 238, 238) !important; display: table-cell; white-space: nowrap; line-height: 1.5; max-width: 200px; text-align: center;" xmlns="http://www.w3.org/1999/xhtml"><span style="color:#eee !important" class="nodeLabel"><p>COTURN Pod<br />hostNetwork: true<br />:3478 / :5349 / :443<br />:10000-13000 UDP</p></span></div></foreignObject></g></g><g class="node default ifaceStyle" id="flowchart-ZEUS_IFACE-11" transform="translate(740.7265625, 209)"><rect class="basic label-container" style="fill:#16213e !important;stroke:#e94560 !important;stroke-width:2px !important" x="-72.265625" y="-39" width="144.53125" height="78"/><g class="label" style="color:#eee !important" transform="translate(-42.265625, -24)"><rect/><foreignObject width="84.53125" height="48"><div style="color: rgb(238, 238, 238) !important; display: table-cell; white-space: nowrap; line-height: 1.5; max-width: 200px; text-align: center;" xmlns="http://www.w3.org/1999/xhtml"><span style="color:#eee !important" class="nodeLabel"><p>eth0<br />5.9.157.226</p></span></div></foreignObject></g></g><g class="node default iptStyle" id="flowchart-ZEUS_IPT-12" transform="translate(740.7265625, 385)"><rect class="basic label-container" style="fill:#0f3460 !important;stroke:#e94560 !important;stroke-width:1px !important" x="-111.0546875" y="-39" width="222.109375" height="78"/><g class="label" style="color:#eee !important" transform="translate(-81.0546875, -24)"><rect/><foreignObject width="162.109375" height="48"><div style="color: rgb(238, 238, 238) !important; display: table-cell; white-space: nowrap; line-height: 1.5; max-width: 200px; text-align: center;" xmlns="http://www.w3.org/1999/xhtml"><span style="color:#eee !important" class="nodeLabel"><p>iptables DNAT<br />COTURN_DNAT chain</p></span></div></foreignObject></g></g><g class="node default workerStyle" id="flowchart-ZEUS_W-13" transform="translate(740.7265625, 561)"><rect class="basic label-container" style="fill:#533483 !important;stroke:#e94560 !important;stroke-width:1px !important" x="-76.234375" y="-39" width="152.46875" height="78"/><g class="label" style="color:#eee !important" transform="translate(-46.234375, -24)"><rect/><foreignObject width="92.46875" height="48"><div style="color: rgb(238, 238, 238) !important; display: table-cell; white-space: nowrap; line-height: 1.5; max-width: 200px; text-align: center;" xmlns="http://www.w3.org/1999/xhtml"><span style="color:#eee !important" class="nodeLabel"><p>k8s-worker-2<br />10.10.20.11</p></span></div></foreignObject></g></g><g class="node default coturnStyle" id="flowchart-ZEUS_COTURN-14" transform="translate(740.7265625, 738)"><rect class="basic label-container" style="fill:#1a1a2e !important;stroke:#e94560 !important;stroke-width:2px !important" x="-98.9453125" y="-63" width="197.890625" height="126"/><g class="label" style="color:#eee !important" transform="translate(-68.9453125, -48)"><rect/><foreignObject width="137.890625" height="96"><div style="color: rgb(238, 238, 238) !important; display: table-cell; white-space: nowrap; line-height: 1.5; max-width: 200px; text-align: center;" xmlns="http://www.w3.org/1999/xhtml"><span style="color:#eee !important" class="nodeLabel"><p>COTURN Pod<br />hostNetwork: true<br />:3478 / :5349 / :443<br />:10000-13000 UDP</p></span></div></foreignObject></g></g><g class="node default ifaceStyle" id="flowchart-JUPITER_IFACE-21" transform="translate(428.6171875, 209)"><rect class="basic label-container" style="fill:#16213e !important;stroke:#e94560 !important;stroke-width:2px !important" x="-72.265625" y="-39" width="144.53125" height="78"/><g class="label" style="color:#eee !important" transform="translate(-42.265625, -24)"><rect/><foreignObject width="84.53125" height="48"><div style="color: rgb(238, 238, 238) !important; display: table-cell; white-space: nowrap; line-height: 1.5; max-width: 200px; text-align: center;" xmlns="http://www.w3.org/1999/xhtml"><span style="color:#eee !important" class="nodeLabel"><p>eth0<br />5.9.157.221</p></span></div></foreignObject></g></g><g class="node default iptStyle" id="flowchart-JUPITER_IPT-22" transform="translate(428.6171875, 385)"><rect class="basic label-container" style="fill:#0f3460 !important;stroke:#e94560 !important;stroke-width:1px !important" x="-111.0546875" y="-39" width="222.109375" height="78"/><g class="label" style="color:#eee !important" transform="translate(-81.0546875, -24)"><rect/><foreignObject width="162.109375" height="48"><div style="color: rgb(238, 238, 238) !important; display: table-cell; white-space: nowrap; line-height: 1.5; max-width: 200px; text-align: center;" xmlns="http://www.w3.org/1999/xhtml"><span style="color:#eee !important" class="nodeLabel"><p>iptables DNAT<br />COTURN_DNAT chain</p></span></div></foreignObject></g></g><g class="node default workerStyle" id="flowchart-JUPITER_W-23" transform="translate(428.6171875, 561)"><rect class="basic label-container" style="fill:#533483 !important;stroke:#e94560 !important;stroke-width:1px !important" x="-76.234375" y="-39" width="152.46875" height="78"/><g class="label" style="color:#eee !important" transform="translate(-46.234375, -24)"><rect/><foreignObject width="92.46875" height="48"><div style="color: rgb(238, 238, 238) !important; display: table-cell; white-space: nowrap; line-height: 1.5; max-width: 200px; text-align: center;" xmlns="http://www.w3.org/1999/xhtml"><span style="color:#eee !important" class="nodeLabel"><p>k8s-worker-3<br />10.10.30.11</p></span></div></foreignObject></g></g><g class="node default coturnStyle" id="flowchart-JUPITER_COTURN-24" transform="translate(428.6171875, 738)"><rect class="basic label-container" style="fill:#1a1a2e !important;stroke:#e94560 !important;stroke-width:2px !important" x="-98.9453125" y="-63" width="197.890625" height="126"/><g class="label" style="color:#eee !important" transform="translate(-68.9453125, -48)"><rect/><foreignObject width="137.890625" height="96"><div style="color: rgb(238, 238, 238) !important; display: table-cell; white-space: nowrap; line-height: 1.5; max-width: 200px; text-align: center;" xmlns="http://www.w3.org/1999/xhtml"><span style="color:#eee !important" class="nodeLabel"><p>COTURN Pod<br />hostNetwork: true<br />:3478 / :5349 / :443<br />:10000-13000 UDP</p></span></div></foreignObject></g></g><g class="node default sniStyle" id="flowchart-SNI_PROXY-31" transform="translate(135.28125, 385)"><rect class="basic label-container" style="fill:#0f3460 !important;stroke:#533483 !important;stroke-width:1px !important" x="-86.46875" y="-39" width="172.9375" height="78"/><g class="label" style="color:#eee !important" transform="translate(-56.46875, -24)"><rect/><foreignObject width="112.9375" height="48"><div style="color: rgb(238, 238, 238) !important; display: table-cell; white-space: nowrap; line-height: 1.5; max-width: 200px; text-align: center;" xmlns="http://www.w3.org/1999/xhtml"><span style="color:#eee !important" class="nodeLabel"><p>nginx SNI proxy<br />:4443 on mars</p></span></div></foreignObject></g></g><g class="node default iptStyle" id="flowchart-SNI_IPTABLES-32" transform="translate(135.28125, 209)"><rect class="basic label-container" style="fill:#0f3460 !important;stroke:#e94560 !important;stroke-width:1px !important" x="-80.984375" y="-39" width="161.96875" height="78"/><g class="label" style="color:#eee !important" transform="translate(-50.984375, -24)"><rect/><foreignObject width="101.96875" height="48"><div style="color: rgb(238, 238, 238) !important; display: table-cell; white-space: nowrap; line-height: 1.5; max-width: 200px; text-align: center;" xmlns="http://www.w3.org/1999/xhtml"><span style="color:#eee !important" class="nodeLabel"><p>iptables DNAT<br />:443 -&gt; :4443</p></span></div></foreignObject></g></g><g class="node default sniStyle" id="flowchart-SNI_BACKEND-33" transform="translate(135.28125, 561)"><rect class="basic label-container" style="fill:#0f3460 !important;stroke:#533483 !important;stroke-width:1px !important" x="-92.28125" y="-39" width="184.5625" height="78"/><g class="label" style="color:#eee !important" transform="translate(-62.28125, -24)"><rect/><foreignObject width="124.5625" height="48"><div style="color: rgb(238, 238, 238) !important; display: table-cell; white-space: nowrap; line-height: 1.5; max-width: 200px; text-align: center;" xmlns="http://www.w3.org/1999/xhtml"><span style="color:#eee !important" class="nodeLabel"><p>10.10.10.11:5349<br />TURNS backend</p></span></div></foreignObject></g></g></g></g></g></svg>